<svg width="400" height="300" viewBox="0 0 400 300" fill="none" xmlns="http://www.w3.org/2000/svg">
<g clip-path="url(#clip0_630_265)">
<path d="M189.611 227.84H35.132C32.6144 227.84 30.5656 225.791 30.5656 223.274V6.12793C30.5656 3.61032 32.6144 1.56152 35.132 1.56152H189.611C192.128 1.56152 194.177 3.61032 194.177 6.12793V223.274C194.177 225.791 192.128 227.84 189.611 227.84ZM35.132 1.76232C32.724 1.76232 30.7656 3.72072 30.7656 6.12873V223.274C30.7656 225.682 32.724 227.641 35.132 227.641H189.611C192.018 227.641 193.977 225.682 193.977 223.274V6.12793C193.977 3.72072 192.018 1.76152 189.611 1.76152L35.132 1.76232Z" fill="#EBEBEB"/>
<path d="M362.648 227.84H208.17C205.652 227.84 203.604 225.791 203.604 223.274V6.12793C203.604 3.61032 205.653 1.56152 208.17 1.56152H362.648C365.166 1.56152 367.214 3.61032 367.214 6.12793V223.274C367.215 225.791 365.166 227.84 362.648 227.84ZM208.17 1.76232C205.762 1.76232 203.804 3.72072 203.804 6.12873V223.274C203.804 225.682 205.762 227.641 208.17 227.641H362.648C365.056 227.641 367.014 225.682 367.014 223.274V6.12793C367.014 3.72072 365.056 1.76152 362.648 1.76152L208.17 1.76232Z" fill="#EBEBEB"/>
<path d="M359.921 276.395H333.423V276.595H359.921V276.395Z" fill="#EBEBEB"/>
<path d="M264.976 278.566H258.022V278.766H264.976V278.566Z" fill="#EBEBEB"/>
<path d="M332.622 268.966H317.269V269.166H332.622V268.966Z" fill="#EBEBEB"/>
<path d="M76.5216 270.31H41.9672V270.51H76.5216V270.31Z" fill="#EBEBEB"/>
<path d="M88.7112 270.31H83.6448V270.51H88.7112V270.31Z" fill="#EBEBEB"/>
<path d="M180.118 273.689H105.177V273.889H180.118V273.689Z" fill="#EBEBEB"/>
<path d="M400 263.518H0V263.718H400V263.518Z" fill="#EBEBEB"/>
<path d="M123.954 33.7256H29.8544V172.768H123.954V33.7256Z" fill="#E0E0E0"/>
<path d="M127.417 33.7256H33.3175V172.768H127.417V33.7256Z" fill="#F0F0F0"/>
<path d="M122.657 107.232H37.8967V164.624H122.657V107.232Z" fill="#EBEBEB"/>
<path d="M122.657 39.376H37.8967V107.232H122.657V39.376Z" fill="white"/>
<path d="M122.658 39.3792H119.675V164.623H122.658V39.3792Z" fill="#E0E0E0"/>
<path d="M37.6323 107.232V110.26H119.993V107.232H37.6323Z" fill="#E0E0E0"/>
<path d="M122.657 102.152H36.2968V107.232H122.657V102.152Z" fill="#F0F0F0"/>
<path d="M350.536 264.427H235.848C227.158 264.427 220.113 257.382 220.113 248.692V214.557C220.113 205.866 227.158 198.822 235.848 198.822H350.536C359.226 198.822 366.271 205.866 366.271 214.557V248.692C366.272 257.382 359.226 264.427 350.536 264.427Z" fill="#E0E0E0"/>
<path d="M342.834 264.912H228.146C219.456 264.912 212.411 257.867 212.411 249.177V215.042C212.411 206.351 219.456 199.306 228.146 199.306H342.835C351.525 199.306 358.57 206.351 358.57 215.042V249.177C358.57 257.867 351.525 264.912 342.834 264.912Z" fill="#F5F5F5"/>
<path d="M351.87 229.969H219.969V216.483C219.969 210.413 224.89 205.493 230.96 205.493H340.88C346.95 205.493 351.87 210.413 351.87 216.483V229.969Z" fill="#E0E0E0"/>
<path d="M340.88 257.757H230.96C224.89 257.757 219.969 252.836 219.969 246.766V233.281H351.87V246.766C351.87 252.836 346.95 257.757 340.88 257.757Z" fill="#E0E0E0"/>
<path d="M316.393 210.23H292.243V230.13H316.393V210.23Z" fill="#E6E6E6"/>
<path d="M292.243 210.23H286.058V230.13H292.243V210.23Z" fill="#F5F5F5"/>
<path d="M291.185 224.775C291.185 225.898 290.274 226.81 289.15 226.81C288.027 226.81 287.116 225.899 287.116 224.775C287.116 223.651 288.026 222.741 289.15 222.741C290.274 222.741 291.185 223.652 291.185 224.775Z" fill="#E0E0E0"/>
<path d="M322.726 207.162H304.585V230.13H322.726V207.162Z" fill="#E6E6E6"/>
<path d="M304.592 207.162H299.347V230.13H304.592V207.162Z" fill="#F5F5F5"/>
<path d="M301.969 212.297C302.962 212.297 303.767 211.492 303.767 210.499C303.767 209.506 302.962 208.702 301.969 208.702C300.977 208.702 300.172 209.506 300.172 210.499C300.172 211.492 300.977 212.297 301.969 212.297Z" fill="#E0E0E0"/>
<path d="M301.97 212.297C302.963 212.297 303.767 211.492 303.767 210.499C303.767 209.506 302.963 208.702 301.97 208.702C300.977 208.702 300.172 209.506 300.172 210.499C300.172 211.492 300.977 212.297 301.97 212.297Z" fill="#E0E0E0"/>
<path d="M325.225 210.23H309.93V230.13H325.225V210.23Z" fill="#EBEBEB"/>
<path d="M309.93 210.23H306.436V230.13H309.93V210.23Z" fill="#F5F5F5"/>
<path d="M342.51 213.598H322.448V230.13H342.51V213.598Z" fill="#E6E6E6"/>
<path d="M322.448 213.598H317.311V230.13H322.448V213.598Z" fill="#F5F5F5"/>
<path d="M347.77 211.049H332.699V230.13H347.77V211.049Z" fill="#E6E6E6"/>
<path d="M332.706 211.049H328.349V230.13H332.706V211.049Z" fill="#F5F5F5"/>
<path d="M351.781 213.598H337.142V230.13H351.781V213.598Z" fill="#E6E6E6"/>
<path d="M337.134 213.598H334.234V230.13H337.134V213.598Z" fill="#F0F0F0"/>
<path d="M258.665 237.103H239.971V257.003H258.665V237.103Z" fill="#E6E6E6"/>
<path d="M239.97 237.103H235.182V257.003H239.97V237.103Z" fill="#F5F5F5"/>
<path d="M263.566 234.034H249.524V257.003H263.566V234.034Z" fill="#E6E6E6"/>
<path d="M249.529 234.034H245.469V257.003H249.529V234.034Z" fill="#F5F5F5"/>
<path d="M322.439 237.103H303.746V257.003H322.439V237.103Z" fill="#E6E6E6"/>
<path d="M303.746 237.103H298.958V257.003H303.746V237.103Z" fill="#F5F5F5"/>
<path d="M327.341 234.034H313.298V257.003H327.341V234.034Z" fill="#E6E6E6"/>
<path d="M313.305 234.034H309.245V257.003H313.305V234.034Z" fill="#F5F5F5"/>
<path d="M265.502 237.103H253.662V257.003H265.502V237.103Z" fill="#EBEBEB"/>
<path d="M253.662 237.103H250.957V257.003H253.662V237.103Z" fill="#F5F5F5"/>
<path d="M278.881 240.47H263.351V257.003H278.881V240.47Z" fill="#E6E6E6"/>
<path d="M263.351 240.47H259.375V257.003H263.351V240.47Z" fill="#F5F5F5"/>
<path d="M282.953 237.921H271.286V257.002H282.953V237.921Z" fill="#E6E6E6"/>
<path d="M271.293 237.921H267.919V257.002H271.293V237.921Z" fill="#F5F5F5"/>
<path d="M286.058 240.47H274.726V257.003H286.058V240.47Z" fill="#E6E6E6"/>
<path d="M274.719 240.47H272.474V257.003H274.719V240.47Z" fill="#F0F0F0"/>
<path d="M272.357 179.746C271.959 178.962 271.051 178.509 270.225 178.682C269.398 178.854 268.722 179.64 268.637 180.525C268.053 180.088 267.217 180.066 266.613 180.471C266.009 180.877 265.673 181.686 265.798 182.43C265.14 181.898 264.06 182.118 263.635 182.87C263.21 183.623 263.54 184.732 264.296 185.092C263.781 185.129 263.34 185.642 263.353 186.186C263.367 186.731 263.834 187.218 264.349 187.227C263.828 187.239 263.348 187.698 263.285 188.245C263.222 188.792 263.584 189.358 264.087 189.502C263.558 189.738 263.424 190.607 263.855 191.008C264.286 191.408 265.085 191.154 265.237 190.57C265.317 190.738 265.567 190.778 265.691 190.642C265.815 190.505 265.767 190.243 265.604 190.165C265.842 190.501 266.451 190.345 266.518 189.931C266.338 190.89 267.482 191.792 268.301 191.338C268.065 191.738 268.398 192.297 268.829 192.422C269.259 192.546 269.714 192.37 270.118 192.17C270.523 191.97 270.936 191.738 271.383 191.744C271.774 191.75 272.139 191.938 272.514 192.059C273.705 192.441 275.081 192.078 275.961 191.149C276.58 191.979 278.046 191.756 278.418 190.774C278.513 191.246 278.93 191.622 279.384 191.648C279.839 191.675 280.292 191.35 280.437 190.893C280.446 191.102 280.455 191.313 280.465 191.522C281.322 191.726 282.17 190.618 281.802 189.774C282.414 189.785 282.993 189.256 283.072 188.614C283.151 187.973 282.719 187.305 282.124 187.15C283.133 186.866 283.903 185.82 283.914 184.716C283.926 183.613 283.177 182.549 282.174 182.243C281.778 182.122 281.313 182.126 280.998 182.404C280.682 182.682 280.641 183.296 280.994 183.52C281.297 182.53 280.847 181.345 279.981 180.851C279.114 180.358 277.93 180.611 277.315 181.423C277.615 181.002 277.621 180.374 277.329 179.948C277.037 179.522 276.47 179.331 275.998 179.501C275.881 178.822 275.204 178.308 274.557 178.408C273.911 178.508 273.402 179.206 273.474 179.892C273.399 179.318 272.507 179.15 272.25 179.662C271.888 179.56 272.357 179.746 272.357 179.746Z" fill="#EBEBEB"/>
<path d="M272.597 186.133C272.333 185.949 271.998 185.85 271.683 185.913C271.367 185.976 271.081 186.22 271.017 186.536C270.952 186.852 271.148 187.213 271.461 187.289C271.842 187.381 272.224 187.067 272.612 187.122C272.75 187.142 272.878 187.207 273.013 187.243C273.571 187.392 274.124 187.028 274.587 186.683C274.75 186.562 274.917 186.437 275.025 186.265C275.134 186.094 275.174 185.863 275.072 185.687C274.929 185.443 274.592 185.407 274.31 185.439C273.746 185.504 273.202 185.731 272.76 186.087C272.774 185.999 272.789 185.91 272.803 185.822L272.597 186.133Z" fill="#FAFAFA"/>
<path d="M280.704 185.654C280.553 185.548 280.397 185.44 280.217 185.398C280.037 185.355 279.825 185.394 279.712 185.539C279.556 185.738 279.655 186.05 279.853 186.209C280.05 186.366 280.313 186.41 280.563 186.45C280.82 186.49 281.144 186.498 281.271 186.272C281.364 186.106 281.289 185.888 281.151 185.758C281.013 185.629 280.826 185.567 280.645 185.509L280.704 185.654Z" fill="#FAFAFA"/>
<path d="M267.898 181.438C267.382 181.654 266.983 182.131 266.863 182.677C266.827 182.842 266.832 183.049 266.976 183.137C267.078 183.199 267.209 183.174 267.325 183.146C267.82 183.028 268.315 182.91 268.809 182.794C268.573 182.885 268.33 182.979 268.141 183.149C267.952 183.318 267.825 183.581 267.886 183.827C267.959 184.116 268.276 184.294 268.573 184.29C268.872 184.286 269.149 184.138 269.391 183.963C269.649 183.778 269.902 183.521 269.907 183.203C269.912 182.886 269.511 182.59 269.267 182.794C269.833 182.641 270.373 182.394 270.86 182.069C271.036 181.951 271.209 181.818 271.321 181.638C271.432 181.457 271.469 181.218 271.368 181.033C270.861 180.111 270.22 181.463 269.908 181.583C269.317 181.811 268.649 181.124 267.898 181.438Z" fill="#FAFAFA"/>
<path d="M265.592 185.371C265.54 185.551 265.575 185.769 265.722 185.886C265.869 186.002 266.129 185.963 266.196 185.788C265.865 185.891 265.511 186.01 265.305 186.29C265.098 186.569 265.149 187.056 265.479 187.164C265.685 187.231 265.905 187.13 266.095 187.026C266.633 186.733 267.146 186.394 267.628 186.016C267.481 186.356 267.835 186.742 268.204 186.774C268.573 186.805 268.918 186.606 269.234 186.414C269.622 186.178 270.068 185.818 269.965 185.374C269.877 184.989 269.384 184.818 269.005 184.931C268.625 185.044 268.341 185.35 268.075 185.643C268.283 185.34 267.987 184.89 267.623 184.841C267.269 184.793 266.916 185.009 266.695 185.27C267.108 185.043 267.2 184.453 266.647 184.385C266.289 184.339 265.678 185.071 265.592 185.371Z" fill="#FAFAFA"/>
<path d="M276.917 184.046C276.605 183.929 276.214 184.133 276.13 184.454C276.046 184.776 276.288 185.144 276.617 185.194C276.375 185.215 276.143 185.336 275.988 185.522C275.901 185.625 275.836 185.759 275.856 185.893C275.885 186.093 276.097 186.224 276.299 186.231C276.501 186.238 276.693 186.153 276.877 186.069C276.678 186.088 276.466 186.111 276.309 186.234C276.15 186.357 276.082 186.617 276.224 186.757C276.342 186.875 276.538 186.856 276.699 186.81C277.061 186.709 277.397 186.52 277.671 186.263C277.877 186.491 278.182 186.656 278.486 186.606C278.789 186.557 279.046 186.234 278.951 185.941C278.883 185.733 278.666 185.601 278.448 185.575C278.23 185.549 278.012 185.609 277.804 185.676C278.018 185.525 278.243 185.355 278.322 185.105C278.4 184.856 278.231 184.521 277.97 184.541C277.676 184.564 277.526 184.963 277.294 185.107C277.008 184.838 277.544 184.28 276.917 184.046Z" fill="#FAFAFA"/>
<path d="M271.628 182.825C271.295 183.052 271.179 183.497 271.202 183.9C271.228 184.344 271.43 184.819 271.837 184.997C272.374 185.232 273.044 184.785 273.142 184.209C273.24 183.632 272.862 183.045 272.342 182.774C272.344 182.774 271.963 182.6 271.628 182.825Z" fill="#FAFAFA"/>
<path d="M275.374 182.346C275.421 182.386 275.466 182.426 275.513 182.466C275.285 182.178 274.805 182.14 274.535 182.389C274.265 182.638 274.263 183.119 274.532 183.37C274.8 183.62 275.281 183.586 275.51 183.299C275.897 183.479 276.408 183.409 276.681 183.08C276.953 182.751 276.891 182.178 276.52 181.967C276.149 181.757 275.584 182.073 275.623 182.498C275.569 182.438 275.516 182.378 275.462 182.318L275.374 182.346Z" fill="#FAFAFA"/>
<path d="M279.509 183.014C279.244 183.274 278.968 183.554 278.87 183.913C278.773 184.272 278.934 184.729 279.294 184.821C279.653 184.912 279.993 184.617 280.197 184.308C280.382 184.03 280.522 183.683 280.416 183.367C280.31 183.05 279.854 182.863 279.626 183.107L279.509 183.014Z" fill="#FAFAFA"/>
<path d="M273.551 180.844C273.416 180.543 272.988 180.438 272.708 180.612C272.428 180.786 272.325 181.179 272.447 181.486C272.569 181.792 272.884 182 273.213 182.036C273.619 182.081 274.099 181.752 274.008 181.354C274.183 181.585 274.497 181.676 274.786 181.648C275.075 181.62 275.342 181.489 275.594 181.344C275.935 181.148 276.299 180.844 276.263 180.452C276.234 180.14 275.932 179.899 275.62 179.87C275.308 179.842 275 179.986 274.761 180.19C274.574 180.35 274.418 180.548 274.216 180.688C274.013 180.828 273.737 180.903 273.521 180.786L273.551 180.844Z" fill="#FAFAFA"/>
<path d="M278.639 199.036H268.394L267.391 188.71H279.642L278.639 199.036Z" fill="#F0F0F0"/>
<path d="M280.436 189.244H266.497L266.246 187.87H280.686L280.436 189.244Z" fill="#FAFAFA"/>
<path d="M268.001 230.108H256.241L259.926 218.235L260.465 216.5H263.125L268.001 230.108Z" fill="#EBEBEB"/>
<path d="M260.465 216.5L259.925 218.235L256.241 230.108L245.369 229.946L241.874 218.235L241.335 216.5H260.465Z" fill="#E0E0E0"/>
<path d="M260.465 216.5L259.925 218.235L256.241 230.108L233.912 229.776L238.669 216.5H260.465Z" fill="#FAFAFA"/>
<path d="M260.465 216.5L259.926 218.235H238.053L238.67 216.5H260.465Z" fill="#EBEBEB"/>
<path d="M241.415 223.875H236.512L238.222 219.046L242.912 219.098L241.415 223.875ZM237.078 223.475H241.122L242.37 219.492L238.504 219.449L237.078 223.475Z" fill="#EBEBEB"/>
<path d="M246.9 223.875H241.997L243.707 219.046L248.397 219.098L246.9 223.875ZM242.563 223.475H246.606L247.854 219.492L243.989 219.449L242.563 223.475Z" fill="#EBEBEB"/>
<path d="M252.386 223.875H247.482L249.194 219.046L253.883 219.098L252.386 223.875ZM248.049 223.475H252.092L253.34 219.492L249.474 219.449L248.049 223.475Z" fill="#EBEBEB"/>
<path d="M257.871 223.875H252.969L254.679 219.046L259.368 219.098L257.871 223.875ZM253.534 223.475H257.578L258.826 219.492L254.961 219.449L253.534 223.475Z" fill="#EBEBEB"/>
<path d="M239.704 229H234.801L236.511 224.17L241.201 224.222L239.704 229ZM235.367 228.6H239.41L240.658 224.616L236.793 224.573L235.367 228.6Z" fill="#EBEBEB"/>
<path d="M245.19 229H240.287L241.998 224.17L246.686 224.222L245.19 229ZM240.853 228.6H244.896L246.144 224.616L242.279 224.573L240.853 228.6Z" fill="#EBEBEB"/>
<path d="M250.675 229H245.772L247.483 224.17L252.173 224.222L250.675 229ZM246.338 228.6H250.381L251.629 224.616L247.763 224.573L246.338 228.6Z" fill="#EBEBEB"/>
<path d="M256.16 229H251.257L252.967 224.17L257.656 224.222L256.16 229ZM251.823 228.6H255.866L257.114 224.616L253.25 224.573L251.823 228.6Z" fill="#EBEBEB"/>
<path d="M330.569 192.631C330.569 195.152 330.965 196.782 331.63 197.828C332.131 198.615 333.031 199.058 333.964 199.058H337.614C338.546 199.058 339.446 198.615 339.947 197.828C340.614 196.782 341.009 195.152 341.009 192.631C341.009 188.975 339.414 186.048 338.894 183.71C338.707 182.869 339.331 180.29 339.331 180.29H332.246C332.246 180.29 332.87 182.869 332.683 183.71C332.162 186.048 330.569 188.975 330.569 192.631Z" fill="#F0F0F0"/>
<path d="M338.154 162.637C338.154 162.637 336.959 162.936 336.264 163.862C335.569 164.789 336.77 166.97 336.77 166.97C336.77 166.97 337.905 168.129 339.316 167.784C340.727 167.439 340.727 167.439 340.727 167.439C340.727 167.439 339.235 163.163 338.163 162.921L338.154 162.637Z" fill="#EBEBEB"/>
<path d="M343.723 163.66C343.536 165.519 341.966 167.611 340.307 167.444C338.647 167.277 337.526 164.913 337.713 163.053C337.9 161.194 339.252 161.265 340.912 161.433C342.572 161.601 343.911 161.801 343.723 163.66Z" fill="#EBEBEB"/>
<path d="M339.043 162.217C339.043 162.217 340.103 163.447 342.783 163.353C342.783 163.353 338.216 165.29 339.043 162.217Z" fill="#EBEBEB"/>
<path d="M340.211 162.061C340.211 162.061 341.698 162.083 341.605 162.688C341.605 162.688 342.839 162.851 342.767 162.308C342.695 161.765 340.211 162.061 340.211 162.061Z" fill="#EBEBEB"/>
<path d="M339.043 162.217C339.043 162.217 340.103 163.447 342.783 163.353C342.783 163.353 338.216 165.29 339.043 162.217Z" fill="#E0E0E0"/>
<path d="M340.211 162.061C340.211 162.061 341.698 162.083 341.605 162.688C341.605 162.688 342.839 162.851 342.767 162.308C342.695 161.765 340.211 162.061 340.211 162.061Z" fill="#E0E0E0"/>
<path d="M337.456 167.504C337.816 168.445 338.794 169.078 339.799 169.146C340.803 169.215 341.804 168.768 342.524 168.065C343.244 167.361 343.702 166.421 343.951 165.445C344.016 165.192 344.157 164.556 343.839 164.394C343.547 164.246 343.274 164.642 343.093 164.816C342.571 165.318 342.032 165.778 341.417 166.163C340.82 166.536 340.18 166.84 339.515 167.066C339.329 167.129 337.52 167.67 337.456 167.504Z" fill="#EBEBEB"/>
<path d="M345.153 165.177C345.322 165.977 345.039 166.857 344.435 167.408C344.039 167.77 343.533 167.986 343.03 168.173C342.679 168.304 342.241 168.407 341.971 168.149C341.679 167.872 341.801 167.389 341.951 167.015C342.182 166.439 342.428 165.869 342.69 165.306C342.904 164.845 343.132 164.047 343.495 163.689C343.835 163.353 344.171 163.653 344.521 164.011C344.833 164.33 345.06 164.737 345.153 165.177Z" fill="#EBEBEB"/>
<path d="M338.065 166.569C337.439 166.423 336.923 165.884 336.806 165.252C336.718 164.785 336.93 163.682 337.52 163.649C337.584 164.677 337.631 165.607 338.065 166.569Z" fill="#E0E0E0"/>
<path d="M342.57 166.896C343.198 166.838 343.785 166.445 344.079 165.888C344.24 165.58 344.43 163.884 343.8 164.492C343.595 164.691 343.486 165.43 343.346 165.711C343.135 166.134 342.874 166.533 342.57 166.896Z" fill="#E0E0E0"/>
<path d="M340.095 167.497C340.481 167.975 341.214 168.133 341.763 167.857C341.639 168.169 340.57 168.246 340.236 168.28C339.368 168.366 339.006 167.923 338.271 167.438C338.271 167.438 339.499 167.869 340.095 167.497Z" fill="#E0E0E0"/>
<path d="M334.81 197.052L336.855 176.39L339.564 169.06L340.034 169.233L337.337 176.531L335.2 197.616L334.81 197.052Z" fill="#E6E6E6"/>
<path d="M337.32 176.348L336.873 176.574C336.579 175.99 336.352 175.259 336.09 174.413C335.684 173.104 335.225 171.621 334.366 170.222L334.792 169.96C335.684 171.412 336.154 172.927 336.568 174.264C336.823 175.09 337.044 175.802 337.32 176.348Z" fill="#E6E6E6"/>
<path d="M338.421 173.639C339.116 173.59 339.791 173.28 340.28 172.784C340.837 172.221 341.137 171.46 341.423 170.721C340.515 170.816 339.671 170.224 338.759 170.157C338.034 170.105 337.291 170.413 336.814 170.963C336.197 171.676 335.836 172.549 336.178 172.993C336.46 173.36 337.491 173.705 338.421 173.639Z" fill="#F0F0F0"/>
<path d="M331.107 171.402C331.779 170.845 333.215 170.62 334.03 170.933C334.844 171.245 335.454 171.962 335.625 172.709C335.301 173.202 334.647 173.392 334.06 173.324C333.474 173.256 332.936 172.977 332.414 172.703C331.891 172.429 331.354 172.149 330.767 172.081L331.107 171.402Z" fill="#F0F0F0"/>
<path d="M335.616 171.795C334.43 171.927 333.368 172.164 332.29 170.815C331.568 169.911 331.799 168.545 331.852 167.464C332.881 167.689 335.214 168.825 335.731 169.103C336.249 169.381 336.69 169.833 336.774 170.369C336.86 170.904 336.497 171.499 335.913 171.597C335.893 171.568 335.616 171.795 335.616 171.795Z" fill="#F0F0F0"/>
<path d="M332.221 187.868C331.745 189.213 331.293 190.676 331.448 192.105C331.478 192.377 331.562 192.688 331.758 192.737C331.94 192.781 332.121 192.558 332.186 192.31C332.25 192.063 332.234 191.799 332.233 191.542C332.227 189.326 333.434 187.458 333.662 185.297C333.727 184.682 333.569 182.742 333.209 184.168C332.888 185.438 332.66 186.627 332.221 187.868Z" fill="#FAFAFA"/>
<path d="M164.616 231.889C164.616 231.889 166.942 206.122 156.702 193.556C146.462 180.989 164.697 192.43 167.926 204.962C167.926 204.962 168.531 181.784 158.313 166.763C148.094 151.742 165.511 162.984 168.548 179.366C168.548 179.366 169.126 158.683 164.022 147.717C158.916 136.75 166.531 143.278 169.898 150.133C173.264 156.987 171.59 175.17 171.59 175.17C171.59 175.17 175.169 141.489 181.959 143.314C188.75 145.139 174.638 168.629 173.509 180.098C173.509 180.098 179.684 164.101 185.839 166.532C191.994 168.962 177.271 172.321 172.725 195.61L171.394 206.433C171.394 206.433 176.975 190.707 182.079 194.838C187.183 198.969 169.641 209.285 167.649 232.336L164.616 231.889Z" fill="#EBEBEB"/>
<path d="M165.716 233.223C165.716 233.223 163.536 201.356 176.507 186.179C189.478 171.002 166.673 184.533 162.353 199.893C162.353 199.893 162.227 171.273 175.238 153.068C188.248 134.861 166.457 148.174 162.271 168.29C162.271 168.29 162.111 142.75 168.704 129.383C175.297 116.015 165.726 123.825 161.39 132.175C157.053 140.525 158.632 163.014 158.632 163.014C158.632 163.014 155.117 121.341 146.69 123.375C138.262 125.409 155.045 154.846 156.131 169.033C156.131 169.033 148.94 149.097 141.281 151.898C133.622 154.7 151.698 159.317 156.685 188.199L158.037 201.596C158.037 201.596 151.572 182.013 145.163 186.946C138.755 191.88 160.124 205.171 161.965 233.677L165.716 233.223Z" fill="#F0F0F0"/>
<path d="M185.875 249.113C185.875 257.857 176.395 264.953 164.699 264.953C152.995 264.953 143.515 257.857 143.515 249.113C143.515 245.169 145.435 241.577 148.619 238.809L146.115 228.209H183.275L180.771 238.809C183.955 241.577 185.875 245.169 185.875 249.113Z" fill="#EBEBEB"/>
<path d="M197.115 26.6247C185.481 39.5487 179.72 57.1415 180.703 74.5031C181.686 91.8647 188.087 108.484 195.876 124.031C202.697 137.646 210.85 153.086 205.266 167.253C202.144 175.175 195.037 181.04 187.173 184.303C179.309 187.566 170.688 188.513 162.184 188.938C147.69 189.663 132.976 188.998 118.869 192.401C104.762 195.803 90.8783 204.198 85.4247 217.646C78.9991 233.491 86.2927 252.455 99.1639 263.711C112.035 274.967 129.303 279.802 146.234 282.189C169.962 285.533 194.273 284.696 217.714 279.725C236.534 275.735 255.061 268.945 270.416 257.353C285.771 245.761 297.753 228.991 301.037 210.034C304.321 191.078 297.947 170.108 282.923 158.09C276.673 153.09 269.142 149.67 263.659 143.839C258.178 138.008 255.395 128.292 260.486 122.116C263.849 118.036 269.506 116.786 274.757 116.159C300.574 113.079 329.174 118.4 350.765 103.914C363.129 95.6183 371.125 81.4767 372.885 66.6927C374.646 51.9087 371.455 35.9079 362.138 24.2943C336.763 -7.33446 228.199 -7.90485 197.115 26.6247Z" fill="#215294"/>
<g opacity="0.9">
<path d="M197.115 26.6247C185.481 39.5487 179.72 57.1415 180.703 74.5031C181.686 91.8647 188.087 108.484 195.876 124.031C202.697 137.646 210.85 153.086 205.266 167.253C202.144 175.175 195.037 181.04 187.173 184.303C179.309 187.566 170.688 188.513 162.184 188.938C147.69 189.663 132.976 188.998 118.869 192.401C104.762 195.803 90.8783 204.198 85.4247 217.646C78.9991 233.491 86.2927 252.455 99.1639 263.711C112.035 274.967 129.303 279.802 146.234 282.189C169.962 285.533 194.273 284.696 217.714 279.725C236.534 275.735 255.061 268.945 270.416 257.353C285.771 245.761 297.753 228.991 301.037 210.034C304.321 191.078 297.947 170.108 282.923 158.09C276.673 153.09 269.142 149.67 263.659 143.839C258.178 138.008 255.395 128.292 260.486 122.116C263.849 118.036 269.506 116.786 274.757 116.159C300.574 113.079 329.174 118.4 350.765 103.914C363.129 95.6183 371.125 81.4767 372.885 66.6927C374.646 51.9087 371.455 35.9079 362.138 24.2943C336.763 -7.33446 228.199 -7.90485 197.115 26.6247Z" fill="white"/>
</g>
<path d="M200 299.213C285.665 299.213 355.111 295.157 355.111 290.155C355.111 285.152 285.665 281.096 200 281.096C114.334 281.096 44.8888 285.152 44.8888 290.155C44.8888 295.157 114.334 299.213 200 299.213Z" fill="#F5F5F5"/>
<path d="M187.259 163.202L189.253 151.665L193.186 152.802L187.259 163.202Z" fill="#215294"/>
<path d="M188.574 166.893L199.823 163.643L198.261 159.859L188.574 166.893Z" fill="#215294"/>
<path d="M190.579 162.555L196.985 150.438L201.3 153.437L190.579 162.555Z" fill="#215294"/>
<path d="M84.7113 180.73H79.6449C79.4241 180.73 79.2449 180.55 79.2449 180.33C79.2449 180.109 79.4241 179.93 79.6449 179.93H84.7113C84.9321 179.93 85.1113 180.109 85.1113 180.33C85.1113 180.55 84.9321 180.73 84.7113 180.73Z" fill="#215294"/>
<path d="M76.2769 180.73H50.8993C50.6785 180.73 50.4993 180.55 50.4993 180.33C50.4993 180.109 50.6785 179.93 50.8993 179.93H76.2769C76.4977 179.93 76.6769 180.109 76.6769 180.33C76.6769 180.55 76.4977 180.73 76.2769 180.73Z" fill="#215294"/>
<path d="M166.282 227.023C166.186 227.023 166.088 226.987 166.011 226.917C165.849 226.767 165.838 226.514 165.988 226.351L168.36 223.775C168.51 223.613 168.763 223.603 168.925 223.751C169.087 223.902 169.098 224.155 168.948 224.317L166.576 226.894C166.498 226.979 166.39 227.023 166.282 227.023Z" fill="#215294"/>
<path d="M144.594 247.526C144.448 247.526 144.308 247.445 144.238 247.307C144.138 247.11 144.217 246.869 144.414 246.769C151.827 243.015 163.576 228.986 163.694 228.844C163.835 228.675 164.087 228.651 164.258 228.794C164.427 228.935 164.45 229.187 164.308 229.357C163.823 229.939 152.334 243.654 144.775 247.483C144.717 247.512 144.655 247.526 144.594 247.526Z" fill="#215294"/>
<path d="M202.164 243.144L207.87 238.417L193.491 224.769L187.352 230.005L202.164 243.144Z" fill="#CB7A63"/>
<path d="M212.499 236.593C212.111 236.357 211.331 236.469 210.521 236.691C210.135 236.801 209.74 236.933 209.384 237.062C209.106 237.163 208.846 237.268 208.632 237.357C208.313 237.494 208.078 237.598 207.999 237.637C207.923 237.656 207.875 237.729 207.871 237.805C207.865 237.833 207.879 237.864 207.894 237.886C207.92 237.925 207.958 237.956 208.007 237.97C208.817 238.185 209.646 238.323 210.483 238.389C210.895 238.448 211.315 238.412 211.707 238.298C211.727 238.293 211.747 238.286 211.762 238.285C211.987 238.212 212.206 238.119 212.412 237.994C212.679 237.78 212.823 237.447 212.791 237.105C212.787 236.897 212.68 236.705 212.499 236.593ZM212.42 237.117C212.458 237.349 212.357 237.58 212.167 237.717C212.019 237.843 211.801 237.927 211.522 237.98C211.252 238.035 210.923 238.049 210.547 238.031C210.107 238.015 209.592 237.947 209.027 237.84C208.906 237.817 208.776 237.793 208.651 237.765C209.333 237.437 210.047 237.193 210.78 237.023C211.172 236.933 211.563 236.869 211.965 236.829C212.085 236.827 212.2 236.854 212.305 236.912C212.377 236.96 212.421 237.035 212.42 237.117Z" fill="#215294"/>
<path d="M209.883 233.587C209.512 233.646 209.182 233.863 208.975 234.174C208.909 234.268 208.856 234.368 208.812 234.48C208.334 235.509 208.582 237.069 208.633 237.357C208.639 237.377 208.641 237.392 208.644 237.397C208.656 237.462 208.7 237.513 208.763 237.535C208.798 237.551 208.835 237.558 208.876 237.547C208.9 237.547 208.922 237.532 208.945 237.507C209.081 237.398 209.225 237.243 209.384 237.061C209.613 236.793 209.854 236.458 210.064 236.105C210.557 235.3 210.912 234.386 210.694 233.913C210.608 233.714 210.398 233.502 209.883 233.587ZM210.36 234.061C210.498 234.371 210.228 235.089 209.827 235.791C209.565 236.237 209.256 236.673 208.956 236.991C208.894 236.485 208.829 235.526 209.074 234.818C209.124 234.655 209.195 234.509 209.28 234.386C209.413 234.19 209.61 234.04 209.833 233.977L209.942 233.959C210.28 233.897 210.343 234.025 210.36 234.061Z" fill="#215294"/>
<path d="M207.132 238.077L199.964 241.694C199.68 241.827 199.536 242.148 199.627 242.448L201.74 249.155C201.972 249.813 202.694 250.157 203.352 249.924C203.394 249.909 203.436 249.891 203.476 249.872C215.754 245.556 219.52 242.505 220.8 241.807C224.454 239.813 222.403 237.221 221.038 237.545C214.914 239.011 212.86 238.631 210.21 237.949C208.808 237.728 207.563 237.864 207.132 238.077Z" fill="#263238"/>
<path opacity="0.2" d="M193.492 224.775L200.773 231.23L194.635 236.467L187.353 230.012L193.492 224.775Z" fill="black"/>
<path d="M191.227 236.418L200.387 227.972L198.371 224.43L187.776 233.527L191.227 236.418Z" fill="#215294"/>
<path opacity="0.5" d="M191.227 236.418L200.387 227.972L198.371 224.43L187.776 233.527L191.227 236.418Z" fill="white"/>
<path d="M196.926 225.673L195.699 226.728L193.864 228.303L192.771 229.235L189.577 231.98L188.964 232.503C188.964 232.503 175.912 225.15 168.652 218.873C163.677 214.572 163.231 212.971 162.704 213.371C155.687 218.709 134.918 237.157 123.148 246.755C122.766 246.798 122.385 246.832 121.999 246.86C115.711 247.321 110.764 246.631 106.929 245.168C106.889 240.064 111.257 228.145 111.619 226.993C111.619 226.993 128.987 209.732 157.125 195.141C157.402 194.997 157.692 194.883 157.975 194.763C158.341 194.601 158.707 194.449 159.077 194.317C160.547 193.759 161.991 193.412 163.391 193.345C164.648 193.28 165.868 193.505 167.049 193.921C167.716 194.153 168.367 194.443 169 194.779C169.557 195.062 170.101 195.385 170.632 195.726C171.503 196.28 172.343 196.894 173.14 197.506C174.935 198.892 188.526 216.406 195.834 224.486C195.838 224.492 195.838 224.492 195.838 224.492C196.219 224.91 196.581 225.31 196.926 225.673Z" fill="#215294"/>
<g opacity="0.1">
<path d="M196.926 225.673L195.699 226.728L193.864 228.303L192.771 229.235L189.577 231.98L188.964 232.503C188.964 232.503 175.912 225.15 168.652 218.873C163.677 214.572 163.231 212.971 162.704 213.371C155.687 218.709 134.918 237.157 123.148 246.755C122.766 246.798 122.385 246.832 121.999 246.86C115.711 247.321 110.764 246.631 106.929 245.168C106.889 240.064 111.257 228.145 111.619 226.993C111.619 226.993 128.987 209.732 157.125 195.141C157.402 194.997 157.692 194.883 157.975 194.763C158.341 194.601 158.707 194.449 159.077 194.317C160.547 193.759 161.991 193.412 163.391 193.345C164.648 193.28 165.868 193.505 167.049 193.921C167.716 194.153 168.367 194.443 169 194.779C169.557 195.062 170.101 195.385 170.632 195.726C171.503 196.28 172.343 196.894 173.14 197.506C174.935 198.892 188.526 216.406 195.834 224.486C195.838 224.492 195.838 224.492 195.838 224.492C196.219 224.91 196.581 225.31 196.926 225.673Z" fill="black"/>
</g>
<path d="M104.252 151.972C105.35 156.954 106.503 164.225 103.083 167.647C107.327 175.118 112.422 182.07 118.267 188.367C125.762 175.336 118.655 167.282 118.655 167.282C113.036 166.079 113.127 163.815 114.008 159.915L104.252 151.972Z" fill="#CB7A63"/>
<path d="M99.6082 168.28C100.023 166.93 100.88 165.759 102.041 164.955C103.165 164.094 114.81 163.966 117.837 164.958C119.607 165.518 121.111 166.704 122.068 168.294L99.6082 168.28Z" fill="#215294"/>
<path d="M153.342 188.118L156.355 186.744L156.503 191.657C156.503 191.657 155.094 192.915 153.553 193.39C152.075 193.846 150.668 192.486 151.032 190.982C151.333 189.732 152.182 188.678 153.342 188.118Z" fill="#CB7A63"/>
<path d="M160.207 188.131L160.049 189.932C160.005 190.488 159.603 190.954 159.058 191.076L156.479 191.655L156.331 186.742L158.947 186.781C159.642 186.771 160.207 187.327 160.211 188.022C160.211 188.058 160.21 188.095 160.207 188.131Z" fill="#CB7A63"/>
<path d="M115.1 202.09C119.632 204.323 125.179 205.604 130.625 204.686C137.042 203.603 148.221 197.168 153.081 193.473L151.443 191.029C149.015 191.547 129.209 201.614 116.415 192.508C114.031 190.811 104.668 183.826 101.359 183.975C95.9945 184.218 96.4569 189.841 98.7625 192.179C101.461 194.917 111.395 200.264 115.1 202.09Z" fill="#CB7A63"/>
<g opacity="0.2">
<path d="M160.05 189.932C160.004 190.486 159.606 190.957 159.06 191.074L156.503 191.652L156.502 191.658C156.502 191.658 155.095 192.918 153.555 193.392C153.392 193.441 153.239 193.47 153.083 193.474L153.076 193.479C148.212 197.176 137.042 203.606 130.629 204.687C125.181 205.603 119.631 204.326 115.104 202.09C111.397 200.265 101.46 194.915 98.76 192.181C96.4584 189.84 95.9952 184.22 101.358 183.974C104.665 183.83 114.028 190.813 116.418 192.511C128.623 201.19 147.198 192.442 151.001 191.16C151.01 191.101 151.019 191.042 151.035 190.983C151.187 190.358 151.467 189.781 151.869 189.29C152.256 188.803 152.766 188.397 153.343 188.116L156.327 186.753L156.356 186.744L158.952 186.779C159.642 186.773 160.21 187.328 160.21 188.024C160.211 188.058 160.213 188.092 160.206 188.132L160.05 189.932Z" fill="black"/>
<path d="M156.34 186.743L156.326 186.747L156.327 186.741L156.34 186.743Z" fill="black"/>
</g>
<path d="M131.87 176.321C138.666 191.289 122.911 195.566 130.128 220.108L95.8857 220.931C96.1153 207.777 100.79 210.604 94.6273 185.873C94.1057 183.778 93.2377 177.769 95.4697 172.297C96.3385 170.169 97.8889 168.36 99.9121 167.267C102.441 165.901 113.576 166.968 118.658 167.309C124.16 166.53 130.867 174.449 131.87 176.321Z" fill="#215294"/>
<path opacity="0.5" d="M131.87 176.321C138.666 191.289 122.911 195.566 130.128 220.108L95.8857 220.931C96.1153 207.777 100.79 210.604 94.6273 185.873C94.1057 183.778 93.2377 177.769 95.4697 172.297C96.3385 170.169 97.8889 168.36 99.9121 167.267C102.441 165.901 113.576 166.968 118.658 167.309C124.16 166.53 130.867 174.449 131.87 176.321Z" fill="white"/>
<path d="M125.328 146.624C125.229 147.28 125.499 147.813 125.907 147.87C126.316 147.928 126.727 147.472 126.822 146.842C126.916 146.211 126.651 145.653 126.242 145.595C125.834 145.538 125.42 145.999 125.328 146.624Z" fill="#263238"/>
<path d="M126.056 145.603L127.627 145.385C127.627 145.385 126.679 146.454 126.056 145.603Z" fill="#263238"/>
<path d="M125.434 147.489C125.434 147.489 126.105 150.35 127.098 151.818C126.154 152.473 124.792 151.911 124.792 151.911L125.434 147.489Z" fill="#A02724"/>
<path d="M127.595 142.223C127.718 142.174 127.806 142.065 127.827 141.933C127.855 141.729 127.715 141.54 127.512 141.506C126.327 141.299 125.114 141.681 124.261 142.53C124.11 142.67 124.1 142.907 124.24 143.059C124.38 143.211 124.617 143.22 124.769 143.08C124.787 143.063 124.803 143.045 124.817 143.025C125.503 142.368 126.463 142.078 127.399 142.248C127.465 142.259 127.533 142.25 127.595 142.223Z" fill="#263238"/>
<path d="M104.605 141.443C103.961 149.24 103.516 152.525 106.841 157.061C111.847 163.883 121.581 162.986 124.531 155.533C127.205 148.826 127.816 137.202 120.702 133.029C115.631 130.019 109.082 131.689 106.072 136.76C105.226 138.185 104.723 139.789 104.605 141.443Z" fill="#CB7A63"/>
<path d="M124.713 155.061C124.125 154.562 123.674 153.906 123.419 153.154C123.397 153.071 123.444 152.983 123.53 152.955C123.613 152.934 123.701 152.981 123.723 153.064C123.959 153.711 124.34 154.278 124.831 154.734L124.713 155.061Z" fill="#263238"/>
<path d="M99.0514 131.3C96.0794 135.33 94.7266 136.378 98.4058 147.106C99.885 151.418 104.182 157.126 106.27 157.65C110.013 158.591 113.656 155.964 116.467 153.318C118.927 151.001 121.288 148.49 122.787 145.461C124.285 142.432 124.836 138.794 123.599 135.65C122.254 132.233 117.513 129.183 113.962 128.435C109.784 127.556 101.523 127.95 99.0514 131.3Z" fill="#263238"/>
<path d="M122.374 146.13C122.374 146.13 123.309 147.741 122.127 148.939L122.151 146.799L122.374 146.13Z" fill="#263238"/>
<path d="M122.36 146.127C122.36 146.127 122.706 148.594 120.639 149.514L121.747 146.854L122.36 146.127Z" fill="#263238"/>
<path d="M108.621 156.744C108.621 156.744 106.351 157.772 106.68 160.011L108.335 157.651L108.621 156.744Z" fill="#263238"/>
<path d="M108.714 156.789C108.714 156.789 106.986 158.584 108.122 160.542L108.785 157.738L108.714 156.789Z" fill="#263238"/>
<path d="M125.49 142.907C126.3 142.072 127.118 141.226 127.715 140.227C128.312 139.228 128.678 138.046 128.497 136.896C128.264 135.41 127.147 134.18 125.84 133.435C124.533 132.69 123.038 132.354 121.57 132.028C120.847 131.867 120.042 131.718 119.408 132.098C118.795 132.465 118.53 133.24 118.565 133.953C118.601 134.666 118.883 135.339 119.142 136.004C120.158 138.605 120.795 141.272 121.289 144.013C121.538 145.394 121.348 146.311 122.71 145.778C123.628 145.419 124.79 143.629 125.49 142.907Z" fill="#263238"/>
<path d="M114.721 146.76C114.637 148.565 115.274 150.329 116.491 151.664C118.117 153.428 120.181 152.275 120.774 150.081C121.315 148.114 121.109 144.826 118.978 143.878C116.847 142.929 114.836 144.562 114.721 146.76Z" fill="#CB7A63"/>
<path d="M205.454 246.739L211.635 240.717L199.676 225.688L192.21 230.094L205.454 246.739Z" fill="#CB7A63"/>
<path d="M217.94 238.865C217.253 238.626 215.846 239.392 214.779 240.07C214.508 240.242 214.264 240.407 214.06 240.55L214.043 240.559C214.005 240.587 213.967 240.616 213.935 240.641C213.695 240.811 213.52 240.938 213.456 240.988C213.38 241.03 213.342 241.112 213.363 241.192C213.383 241.272 213.455 241.332 213.542 241.338C214.275 241.369 215.015 241.342 215.75 241.266C215.916 241.25 216.074 241.232 216.238 241.21C216.771 241.169 217.284 240.993 217.723 240.698C217.881 240.596 218.031 240.482 218.167 240.354C218.401 240.074 218.479 239.688 218.369 239.337C218.311 239.125 218.152 238.946 217.94 238.865ZM217.98 239.437C218.064 239.673 218.018 239.934 217.849 240.126C217.641 240.386 217.222 240.593 216.636 240.733C216.181 240.846 215.628 240.922 214.984 240.956C214.731 240.966 214.456 240.98 214.172 240.976C214.262 240.904 214.349 240.841 214.442 240.774C214.506 240.724 214.567 240.683 214.634 240.638C215.491 240.037 216.435 239.564 217.438 239.241C217.556 239.206 217.687 239.21 217.815 239.247C217.899 239.275 217.962 239.347 217.98 239.437Z" fill="#215294"/>
<path d="M214.508 236.31C214.131 236.457 213.839 236.755 213.692 237.125C213.187 238.354 213.935 240.252 214.059 240.549C214.057 240.558 214.057 240.558 214.066 240.561C214.067 240.576 214.07 240.582 214.073 240.587C214.103 240.655 214.164 240.697 214.23 240.706C214.272 240.714 214.314 240.706 214.352 240.693C214.379 240.686 214.405 240.664 214.416 240.642C214.425 240.63 214.431 240.627 214.439 240.614C214.55 240.47 214.668 240.282 214.779 240.07C215.372 238.959 215.92 237.103 215.439 236.462C215.296 236.274 215.032 236.099 214.508 236.31ZM214.311 240.091C214.091 239.458 213.713 238.119 214.059 237.281C214.152 237.047 214.323 236.846 214.549 236.73L214.658 236.678C215.002 236.542 215.091 236.661 215.119 236.698C215.468 237.169 214.934 239.063 214.311 240.091Z" fill="#215294"/>
<path opacity="0.2" d="M199.051 224.769L204.676 231.971L197.061 236.214L191.348 229.198L199.051 224.769Z" fill="black"/>
<path d="M95.5784 218.316L94.7896 221.421C94.6728 221.666 94.9664 221.899 95.3568 221.89L130.618 221.054C130.926 221.042 131.177 220.886 131.192 220.69L130.31 217.434C130.334 217.226 130.054 217.05 129.718 217.058L96.1416 218.046C95.92 218.03 95.7056 218.133 95.5784 218.316Z" fill="#263238"/>
<path d="M126.949 221.427L126.023 221.525C125.84 221.52 125.686 221.469 125.688 221.353L125.671 217.342C125.675 217.226 125.82 217.115 126.003 217.093L126.929 216.988C127.112 216.993 127.267 217.044 127.263 217.166L127.28 221.171C127.279 221.293 127.133 221.405 126.949 221.427Z" fill="#215294"/>
<path d="M114.33 221.59L113.404 221.687C113.221 221.682 113.073 221.631 113.07 221.515L113.059 217.504C113.063 217.389 113.208 217.277 113.391 217.255L114.311 217.15C114.494 217.155 114.648 217.206 114.645 217.329L114.662 221.334C114.665 221.47 114.514 221.567 114.33 221.59Z" fill="#215294"/>
<path d="M114.33 221.59L113.404 221.687C113.221 221.682 113.073 221.631 113.07 221.515L113.059 217.504C113.063 217.389 113.208 217.277 113.391 217.255L114.311 217.15C114.494 217.155 114.648 217.206 114.645 217.329L114.662 221.334C114.665 221.47 114.514 221.567 114.33 221.59Z" fill="#215294"/>
<path d="M203.777 227.991L202.215 228.872L202.209 228.878L199.526 230.394L197.116 231.742L197.109 231.748L194.639 233.143V233.15L193.691 233.683C193.691 233.683 193.478 233.53 193.097 233.25C192.95 233.15 192.783 233.03 192.59 232.882C192.003 232.442 191.182 231.828 190.227 231.067C190.227 231.067 190.227 231.067 190.227 231.061C185.254 227.13 176.396 219.399 173.759 212.371C172.057 214.4 170.015 216.95 167.679 219.767C157.619 231.903 141.987 249.031 123.19 251.26C122.809 251.314 122.429 251.347 122.042 251.38C115.761 251.921 110.808 251.294 106.956 249.878C97.2041 246.307 94.4873 237.737 95.1545 230.447V230.421C95.2145 227.01 95.8817 220.929 95.8817 220.929L131.459 220.969C136.472 214.882 146.531 205.342 156.818 199.329C157.058 199.175 157.305 199.035 157.552 198.902C157.859 198.722 158.167 198.554 158.473 198.388C161.817 196.559 165.161 195.138 168.332 194.37C169.039 194.202 169.734 194.056 170.421 193.956C171.142 193.842 171.85 193.782 172.551 193.749V193.755C177.423 193.535 181.655 195.344 184.526 200.21L203.243 227.217L203.777 227.991Z" fill="#215294"/>
<path d="M184.579 191.022L145.262 192.646L146.413 167.632L185.73 166.007L184.579 191.022Z" fill="#215294"/>
<path d="M184.118 192.994L145.374 194.595C144.275 194.641 143.426 193.783 143.476 192.68L144.62 167.822C144.67 166.718 145.603 165.787 146.702 165.742L185.446 164.142C186.545 164.096 187.394 164.954 187.344 166.057L186.201 190.915C186.15 192.018 185.218 192.95 184.118 192.994Z" fill="#263238"/>
<path d="M184.579 191.022L145.262 192.646L146.413 167.632L185.73 166.007L184.579 191.022Z" fill="#215294"/>
<path opacity="0.9" d="M184.579 191.022L145.262 192.646L146.413 167.632L185.73 166.007L184.579 191.022Z" fill="white"/>
<path opacity="0.1" d="M160.366 165.192L153.873 194.233L156.457 194.126L162.865 165.089L160.366 165.192Z" fill="white"/>
<path opacity="0.1" d="M164.353 165.027L157.86 194.068L162.984 193.856L169.392 164.819L164.353 165.027Z" fill="white"/>
<path d="M171.818 193.306L184.902 192.938C185.127 194.457 184.479 195.028 183.645 195.049L179.46 195.155L176.664 195.216L172.321 195.339L145.369 196.126L145.155 194.229L171.818 193.306Z" fill="#215294"/>
<path d="M171.818 193.306L184.902 192.938C185.127 194.457 184.479 195.028 183.645 195.049L179.46 195.155L176.664 195.216L172.321 195.339L138.958 196.362C138.575 196.374 138.222 196.159 138.057 195.814C137.758 195.186 138.2 194.458 138.895 194.434L171.818 193.306Z" fill="#215294"/>
<path opacity="0.2" d="M171.818 193.306L184.902 192.938C185.127 194.457 184.479 195.028 183.645 195.049L179.46 195.155L176.664 195.216L172.321 195.339L138.958 196.362C138.575 196.374 138.222 196.159 138.057 195.814C137.758 195.186 138.2 194.458 138.895 194.434L171.818 193.306Z" fill="black"/>
<path opacity="0.2" d="M184.903 192.938L184.981 193.467C185.103 194.286 184.479 195.028 183.646 195.049L179.461 195.155L171.692 195.434L171.818 193.307L184.903 192.938Z" fill="black"/>
<path opacity="0.2" d="M117.115 177.052C117.115 177.052 115.263 180.821 120.603 190.774L122.835 194.832C123.571 196.17 128.463 193.443 129.923 190.933C129.923 190.933 120.564 185.32 117.115 177.052Z" fill="black"/>
<path d="M162.368 188.654L166.091 187.558L165.494 193.307C165.494 193.307 160.304 196.778 158.506 193.46L159.229 191.606C159.775 190.198 160.929 189.114 162.368 188.654Z" fill="#CB7A63"/>
<path d="M170.36 189.819L169.894 191.891C169.755 192.532 169.214 193.006 168.56 193.058L165.467 193.301L166.064 187.553L169.106 188.036C169.915 188.141 170.487 188.883 170.382 189.693C170.376 189.735 170.369 189.777 170.36 189.819Z" fill="#CB7A63"/>
<path d="M131.395 198.378C133.989 201.897 137.637 204.837 141.928 205.676C146.983 206.665 156.709 199.514 161.276 194.886C161.046 192.932 161.177 191.878 159.229 191.606C159.229 191.606 154.21 195.286 144.741 197.494C141.683 198.207 139.643 195.079 136.975 190.529C135.645 188.26 131.341 178.949 129.72 176.878C127.116 173.549 119.703 175.937 122.646 183.942C123.884 187.31 129.273 195.501 131.395 198.378Z" fill="#CB7A63"/>
<path d="M128.622 171.43C133.884 176.261 136.442 184.806 136.442 184.806L124.158 192.294C124.158 192.294 115.172 179.69 116.778 175.297C118.043 171.885 120.386 169.652 123.464 169.459C125.372 169.339 127.213 170.137 128.622 171.43Z" fill="#215294"/>
<path d="M100.451 222.075L99.5194 222.097C99.337 222.077 99.1882 222.011 99.2018 221.89L99.5402 217.9C99.5546 217.778 99.709 217.681 99.8938 217.674L100.825 217.652C101.007 217.673 101.155 217.745 101.143 217.859L100.803 221.856C100.79 221.977 100.633 222.096 100.451 222.075Z" fill="#215294"/>
<path d="M192.182 235.385L204.155 229.401L203.131 225.143L189.483 231.372L192.182 235.385Z" fill="#215294"/>
<path opacity="0.5" d="M192.182 235.385L204.155 229.401L203.131 225.143L189.483 231.372L192.182 235.385Z" fill="white"/>
<path d="M211.154 240.061L202.9 242.562C202.575 242.65 202.363 242.962 202.403 243.297L203.398 250.786C203.522 251.526 204.222 252.023 204.962 251.898C205.01 251.89 205.057 251.88 205.103 251.866C218.895 249.571 223.445 247.04 224.93 246.538C229.166 245.104 227.474 241.982 225.97 242.07C219.218 242.489 217.113 241.706 214.436 240.494C212.994 240.001 211.65 239.914 211.154 240.061Z" fill="#263238"/>
<path d="M100.138 141.353C97.6592 141.743 95.2016 139.841 94.4256 137.454C93.6496 135.068 94.292 132.403 95.564 130.241C96.504 128.644 102.638 124.847 104.913 129.119C109.441 137.618 100.138 141.353 100.138 141.353Z" fill="#263238"/>
<path d="M184.227 174.582L160.027 175.611L160.135 173.211L184.335 172.181L184.227 174.582Z" fill="#215294"/>
<g opacity="0.7">
<path d="M184.227 174.582L160.027 175.611L160.135 173.211L184.335 172.181L184.227 174.582Z" fill="white"/>
</g>
<path d="M184.079 177.914L159.879 178.944L159.986 176.543L184.186 175.513L184.079 177.914Z" fill="#215294"/>
<g opacity="0.7">
<path d="M184.079 177.914L159.879 178.944L159.986 176.543L184.186 175.513L184.079 177.914Z" fill="white"/>
</g>
<path d="M183.929 181.246L159.729 182.276L159.837 179.876L184.036 178.846L183.929 181.246Z" fill="#215294"/>
<g opacity="0.7">
<path d="M183.929 181.246L159.729 182.276L159.837 179.876L184.036 178.846L183.929 181.246Z" fill="white"/>
</g>
<path d="M183.779 184.579L159.58 185.609L159.687 183.208L183.887 182.178L183.779 184.579Z" fill="#215294"/>
<g opacity="0.7">
<path d="M183.779 184.579L159.58 185.609L159.687 183.208L183.887 182.178L183.779 184.579Z" fill="white"/>
</g>
<path d="M183.631 187.911L159.431 188.941L159.538 186.54L183.738 185.51L183.631 187.911Z" fill="#215294"/>
<g opacity="0.7">
<path d="M183.631 187.911L159.431 188.941L159.538 186.54L183.738 185.51L183.631 187.911Z" fill="white"/>
</g>
<path d="M150.258 176.958L148.317 177.042L148.351 177.842L150.292 177.759L150.258 176.958Z" fill="#215294"/>
<g opacity="0.5">
<path d="M150.258 176.958L148.317 177.042L148.351 177.842L150.292 177.759L150.258 176.958Z" fill="white"/>
</g>
<path d="M150.166 179.266L148.225 179.35L148.259 180.15L150.201 180.066L150.166 179.266Z" fill="#215294"/>
<g opacity="0.5">
<path d="M150.166 179.266L148.225 179.35L148.259 180.15L150.201 180.066L150.166 179.266Z" fill="white"/>
</g>
<path d="M150.074 181.574L148.133 181.657L148.167 182.457L150.108 182.374L150.074 181.574Z" fill="#215294"/>
<g opacity="0.5">
<path d="M150.074 181.574L148.133 181.657L148.167 182.457L150.108 182.374L150.074 181.574Z" fill="white"/>
</g>
<path d="M149.983 183.883L148.043 183.966L148.077 184.766L150.018 184.683L149.983 183.883Z" fill="#215294"/>
<g opacity="0.5">
<path d="M149.983 183.883L148.043 183.966L148.077 184.766L150.018 184.683L149.983 183.883Z" fill="white"/>
</g>
<path d="M149.892 186.189L147.951 186.272L147.985 187.072L149.926 186.989L149.892 186.189Z" fill="#215294"/>
<g opacity="0.5">
<path d="M147.973 187.074L148.046 186.269L149.986 186.186L149.914 186.991L147.973 187.074Z" fill="white"/>
</g>
<path d="M149.795 188.491L147.854 188.573L147.887 189.373L149.829 189.291L149.795 188.491Z" fill="#215294"/>
<g opacity="0.5">
<path d="M149.795 188.491L147.854 188.573L147.887 189.373L149.829 189.291L149.795 188.491Z" fill="white"/>
</g>
<path d="M152.27 174.751L148.255 176.244L148.299 175.189L150.522 174.831L148.32 174.677L148.363 173.623L152.27 174.751Z" fill="#215294"/>
<path d="M176.795 170.934L160.027 171.648L160.102 169.985L176.87 169.271L176.795 170.934Z" fill="#215294"/>
<g opacity="0.7">
<path d="M176.795 170.934L160.027 171.648L160.102 169.985L176.87 169.271L176.795 170.934Z" fill="white"/>
</g>
<path d="M154.172 171.794L151.713 171.905L152.707 171.272L152.979 171.522L153.273 171.265L154.172 171.794Z" fill="#215294"/>
<path d="M152.607 171.195L151.613 171.828L151.687 170.364L152.607 171.195Z" fill="#215294"/>
<path d="M154.326 170.317L154.245 171.708L153.347 171.178L154.326 170.317Z" fill="#215294"/>
<path d="M153.013 170.932L152.958 170.99L152.966 170.997L153.02 170.94L153.013 170.932Z" fill="white"/>
<path d="M152.964 170.945L152.957 170.952L153.011 171.01L153.019 171.003L152.964 170.945Z" fill="white"/>
<path d="M154.326 170.179L153.273 171.138L152.979 171.396L152.707 171.146L151.787 170.314L151.713 170.248L154.326 170.179Z" fill="#215294"/>
<path d="M150.266 170.439L148.324 170.522L148.335 170.761L150.276 170.678L150.266 170.439Z" fill="#215294"/>
<path d="M150.269 171.049L148.327 171.132L148.338 171.371L150.279 171.288L150.269 171.049Z" fill="#215294"/>
<path d="M150.266 171.663L148.324 171.746L148.335 171.985L150.276 171.902L150.266 171.663Z" fill="#215294"/>
<path d="M262.964 50.1417H251.311C250.254 50.1417 249.397 49.2849 249.397 48.2281C249.397 47.1713 250.254 46.3145 251.311 46.3145H262.964C264.021 46.3145 264.877 47.1713 264.877 48.2281C264.877 49.2849 264.021 50.1417 262.964 50.1417Z" fill="#215294"/>
<g opacity="0.7">
<path d="M262.964 50.1417H251.311C250.254 50.1417 249.397 49.2849 249.397 48.2281C249.397 47.1713 250.254 46.3145 251.311 46.3145H262.964C264.021 46.3145 264.877 47.1713 264.877 48.2281C264.877 49.2849 264.021 50.1417 262.964 50.1417Z" fill="white"/>
</g>
<path d="M305.726 89.4306L261.042 171.669C260.467 172.728 259.142 173.12 258.083 172.545L182.04 131.227C180.981 130.652 180.589 129.327 181.165 128.268L239.286 21.3002C239.861 20.241 241.186 19.849 242.245 20.425L293.482 48.2642L305.726 89.4306Z" fill="#215294"/>
<g opacity="0.2">
<path d="M305.726 89.4306L261.042 171.669C260.467 172.728 259.142 173.12 258.083 172.545L182.04 131.227C180.981 130.652 180.589 129.327 181.165 128.268L239.286 21.3002C239.861 20.241 241.186 19.849 242.245 20.425L293.482 48.2642L305.726 89.4306Z" fill="white"/>
</g>
<path d="M280.654 107.888L223.865 77.2512L221.966 80.773L278.754 111.41L280.654 107.888Z" fill="#215294"/>
<path d="M272.893 122.273L216.104 91.6367L214.204 95.1592L270.993 125.796L272.893 122.273Z" fill="#215294"/>
<path d="M265.133 136.659L208.344 106.022L206.444 109.544L263.233 140.181L265.133 136.659Z" fill="#215294"/>
<path d="M293.555 48.2283L280.077 73.0339C279.502 74.0931 279.894 75.4179 280.952 75.9931L305.682 89.4299L293.555 48.2283Z" fill="#215294"/>
<path opacity="0.7" d="M293.555 48.2283L280.077 73.0339C279.502 74.0931 279.894 75.4179 280.952 75.9931L305.682 89.4299L293.555 48.2283Z" fill="white"/>
<path d="M317.379 86.6657L272.694 168.904C272.119 169.963 270.794 170.355 269.735 169.78L193.692 128.463C192.633 127.887 192.241 126.563 192.816 125.503L250.937 18.5353C251.512 17.4761 252.837 17.0841 253.896 17.6601L305.133 45.4993L317.379 86.6657Z" fill="#215294"/>
<g opacity="0.5">
<path d="M317.379 86.6657L272.694 168.904C272.119 169.963 270.794 170.355 269.735 169.78L193.692 128.463C192.633 127.887 192.241 126.563 192.816 125.503L250.937 18.5353C251.512 17.4761 252.837 17.0841 253.896 17.6601L305.133 45.4993L317.379 86.6657Z" fill="white"/>
</g>
<path d="M290.793 104.302L237.035 75.3009C236.198 74.8497 235.153 75.1617 234.702 75.9985L234.437 76.4897C233.986 77.3265 234.298 78.3713 235.135 78.8225L288.892 107.823C289.729 108.275 290.774 107.963 291.225 107.126L291.491 106.635C291.943 105.798 291.63 104.754 290.793 104.302Z" fill="#215294"/>
<path d="M283.032 118.687L229.274 89.6864C228.437 89.2352 227.392 89.5472 226.941 90.384L226.676 90.8752C226.224 91.712 226.537 92.7568 227.374 93.208L281.132 122.209C281.969 122.66 283.014 122.348 283.465 121.511L283.73 121.02C284.182 120.183 283.87 119.139 283.032 118.687Z" fill="#215294"/>
<path d="M275.272 133.073L221.514 104.072C220.677 103.621 219.632 103.933 219.181 104.77L218.916 105.261C218.465 106.098 218.777 107.143 219.614 107.594L273.372 136.595C274.209 137.046 275.254 136.734 275.705 135.897L275.97 135.406C276.421 134.569 276.109 133.525 275.272 133.073Z" fill="#215294"/>
<path d="M305.208 45.4634L291.73 70.269C291.154 71.3282 291.546 72.653 292.606 73.2282L317.335 86.665L305.208 45.4634Z" fill="#215294"/>
<path opacity="0.7" d="M305.208 45.4634L291.73 70.269C291.154 71.3282 291.546 72.653 292.606 73.2282L317.335 86.665L305.208 45.4634Z" fill="white"/>
<path d="M302.122 7.75684L305.878 24.452C291.637 28.3632 278.864 42.4552 269.668 55.7713C266.04 61.0249 262.97 67.1353 260.675 73.5889C260.675 73.5889 289.39 47.6168 305.22 46.0928L304.467 73.6913C304.467 73.6913 320.884 41.7121 352.769 30.008C352.769 30.008 326.062 10.7768 302.122 7.75684Z" fill="#215294"/>
<path d="M108.411 190.163L115.667 273.101H103.974L96.1658 183.851H101.524C105.109 183.851 108.099 186.591 108.411 190.163Z" fill="#215294"/>
<path opacity="0.2" d="M108.477 190.911L115.667 273.101H103.974L96.1658 183.851H100.773C104.783 183.851 108.127 186.916 108.477 190.911Z" fill="black"/>
<path d="M100.81 189.255L108.146 273.101H38.5152L31.2696 190.287C30.9672 186.827 33.6936 183.851 37.1664 183.851H94.9136C97.9824 183.851 100.542 186.197 100.81 189.255Z" fill="#215294"/>
<path opacity="0.2" d="M100.89 190.167L108.146 273.101H38.5152L31.3648 191.372C31.0112 187.329 34.1976 183.851 38.2568 183.851H93.9984C97.5848 183.851 100.577 186.593 100.89 190.167Z" fill="white"/>
<path d="M223.354 273.102H38.8328L36.8208 250.104H213.946C218.03 250.104 221.632 253.415 221.989 257.5L223.354 273.102Z" fill="#215294"/>
<path opacity="0.2" d="M223.354 273.102H38.8328L36.8208 250.104H213.946C218.03 250.104 221.632 253.415 221.989 257.5L223.354 273.102Z" fill="white"/>
<path d="M231.814 281.908H36.664C34.1328 281.908 32.0808 279.856 32.0808 277.325C32.0808 274.794 34.1328 272.742 36.664 272.742H231.813C234.344 272.742 236.396 274.794 236.396 277.325C236.396 279.857 234.345 281.908 231.814 281.908Z" fill="#215294"/>
<path opacity="0.2" d="M231.814 281.908H118.527C115.995 281.908 113.943 279.856 113.943 277.325C113.943 274.794 115.995 272.742 118.527 272.742H231.813C234.344 272.742 236.396 274.794 236.396 277.325C236.396 279.857 234.345 281.908 231.814 281.908Z" fill="black"/>
<path d="M39.2233 281.908L41.5361 289.778H46.1617L48.7057 281.908H39.2233Z" fill="#263238"/>
<path opacity="0.5" d="M39.2233 281.908L41.5361 289.778H46.1617L48.7057 281.908H39.2233Z" fill="white"/>
<path d="M105.489 281.908L107.802 289.778H112.428L114.972 281.908H105.489Z" fill="#263238"/>
<path opacity="0.5" d="M105.489 281.908L107.802 289.778H112.428L114.972 281.908H105.489Z" fill="white"/>
<path d="M156.207 281.908L158.52 289.778H163.146L165.69 281.908H156.207Z" fill="#263238"/>
<path opacity="0.5" d="M156.207 281.908L158.52 289.778H163.146L165.69 281.908H156.207Z" fill="white"/>
<path d="M222.473 281.908L224.786 289.778H229.411L231.955 281.908H222.473Z" fill="#263238"/>
<path opacity="0.5" d="M222.473 281.908L224.786 289.778H229.411L231.955 281.908H222.473Z" fill="white"/>
</g>
<defs>
<clipPath id="clip0_630_265">
<rect width="400" height="300" fill="white"/>
</clipPath>
</defs>
</svg>
