<svg width="378" height="101" viewBox="0 0 378 101" fill="none" xmlns="http://www.w3.org/2000/svg">
<circle cx="50.5" cy="50.5" r="50.5" fill="#90A8C9" fill-opacity="0.2"/>
<path d="M18 78.2222V68.238H20.1999V72.2994H28.3791V68.238H30.4662V78.2222H28.3791V73.484H20.1999V78.2222H18Z" fill="#1D1D1B"/>
<path d="M36.2196 78.2222V68.238H39.2656C40.7322 71.1148 42.2553 73.766 43.6091 76.6428C45.0193 73.7096 46.4859 71.1148 47.9525 68.238H51.0549V78.2222H49.0242L48.9678 69.761L44.6244 78.2222H42.5937L38.2503 69.8175V78.2222H36.2196Z" fill="#1D1D1B"/>
<path d="M56.7524 78.2222V68.238H67.9212V69.3662H58.8395V72.3558H67.3571V73.5404H58.8395V76.9248H68.1469V78.2222H56.7524Z" fill="#1D1D1B"/>
<path d="M73.054 78.2222V68.238H75.1975V76.812H83.0382V78.2222H73.054Z" fill="#1D1D1B"/>
<path d="M51.0027 57.8222C54.0782 48.0983 58.2844 40.2287 59.8222 35.3893C60.8172 32.1782 60.8624 28.56 58.8271 25.7106C54.2591 19.3336 42.0929 21.3236 41.5049 30.55C41.4145 31.9973 41.6406 33.4446 42.0476 34.8014C43.4497 39.4146 47.9725 47.8722 51.0027 57.8222Z" fill="#EE7E22"/>
<path d="M51.0027 63.2042C44.4447 49.5003 36.3037 58.4101 29.61 55.8321C21.288 51.8521 24.6349 40.6357 34.0875 40.7261C45.4397 40.8618 48.1533 52.0782 51.0027 63.2042Z" fill="#86A43D"/>
<path d="M51.0022 63.2041C57.5602 49.5002 65.7465 58.3648 72.3949 55.832C80.7168 51.852 77.3248 40.6356 67.9174 40.6808C56.5652 40.8617 53.8515 52.0781 51.0022 63.2041Z" fill="#86A43D"/>
<path d="M80.1047 59.8172H79.5406V60.9454H80.1047C80.3867 60.9454 80.6687 60.889 80.7815 60.7762C80.9508 60.6634 81.0072 60.5505 81.0072 60.3249C81.0072 60.0993 80.8944 59.9865 80.7815 59.8737C80.6687 59.8172 80.3867 59.8172 80.1047 59.8172ZM80.2175 59.366C80.7251 59.366 81.0636 59.4788 81.3456 59.5916C81.5713 59.7608 81.6841 59.9865 81.6841 60.3249C81.6841 60.5505 81.5713 60.7762 81.4584 61.0018C81.2892 61.171 81.12 61.2274 80.838 61.3403L81.6277 62.9197H80.8944L80.2175 61.3967H79.5406V62.9197H78.8637V59.366H80.2175ZM82.8686 61.2274C82.8686 60.8326 82.8122 60.4941 82.643 60.1557C82.4738 59.8172 82.361 59.5352 82.0789 59.3096C81.8533 59.0839 81.5149 58.8583 81.1764 58.6891C80.838 58.5199 80.4995 58.4635 80.1047 58.4635C79.7662 58.4635 79.4278 58.5199 79.0329 58.6891C78.7509 58.8583 78.4124 59.0275 78.1868 59.2532C77.9612 59.4788 77.7355 59.8172 77.5663 60.1557C77.3971 60.4941 77.3407 60.8326 77.3407 61.2274C77.3407 61.6223 77.3971 61.9043 77.5663 62.2428C77.7355 62.5812 77.9047 62.8633 78.1868 63.1453C78.4124 63.3709 78.7509 63.5966 79.0329 63.7658C79.3714 63.935 79.7098 63.9914 80.0482 63.9914C80.3867 63.9914 80.7251 63.935 81.12 63.7658C81.4584 63.5966 81.7969 63.4273 82.0225 63.1453C82.2482 62.9197 82.4738 62.5812 82.643 62.2992C82.7558 61.9607 82.8686 61.6223 82.8686 61.2274ZM80.1047 58.0686C80.5559 58.0686 80.9508 58.1814 81.2892 58.2942C81.6841 58.4635 81.9661 58.6891 82.3046 58.9711C82.5866 59.2532 82.8122 59.648 82.9815 59.9865C83.1507 60.3813 83.2071 60.7762 83.2071 61.171C83.2071 61.6223 83.0943 62.0171 82.9815 62.3556C82.8122 62.694 82.5866 63.0325 82.3046 63.3709C82.0225 63.7094 81.6277 63.935 81.2328 64.0478C80.838 64.217 80.4431 64.2735 80.0482 64.2735C79.6534 64.2735 79.2585 64.1606 78.8637 64.0478C78.4688 63.8786 78.1868 63.653 77.8483 63.3709C77.5663 63.0889 77.3407 62.694 77.1714 62.3556C77.0022 62.0171 76.9458 61.6223 76.9458 61.171C76.9458 60.7762 77.0586 60.3813 77.1714 59.9865C77.2843 59.5916 77.5663 59.2532 77.8483 58.9147C78.1304 58.5763 78.4688 58.4071 78.8637 58.2378C79.3149 58.125 79.7098 58.0686 80.1047 58.0686Z" fill="#1D1D1B"/>
<path d="M121.1 33.62V37.28H126.1V39.44H121.1V43.24H126.7V45.5H118.28V31.38H126.7V33.62H121.1ZM135.388 34.26C136.668 34.26 137.688 34.68 138.448 35.52C139.208 36.36 139.588 37.54 139.588 39.06V45.5H136.788V39.38C136.788 38.5 136.561 37.82 136.108 37.34C135.654 36.8467 135.034 36.6 134.248 36.6C133.448 36.6 132.808 36.86 132.328 37.38C131.848 37.9 131.608 38.6467 131.608 39.62V45.5H128.788V34.42H131.608V36.64C131.901 35.8933 132.381 35.3133 133.048 34.9C133.728 34.4733 134.508 34.26 135.388 34.26ZM146.409 34.28C147.342 34.28 148.142 34.5 148.809 34.94C149.476 35.38 149.949 35.9733 150.229 36.72V34.42H153.029V45.54C153.029 46.5667 152.822 47.4867 152.409 48.3C152.009 49.1267 151.402 49.7733 150.589 50.24C149.789 50.7067 148.816 50.94 147.669 50.94C146.069 50.94 144.776 50.56 143.789 49.8C142.802 49.04 142.202 48.0067 141.989 46.7H144.769C144.929 47.26 145.236 47.6933 145.689 48C146.156 48.32 146.749 48.48 147.469 48.48C148.296 48.48 148.962 48.2333 149.469 47.74C149.976 47.26 150.229 46.5267 150.229 45.54V43.18C149.949 43.9267 149.476 44.5267 148.809 44.98C148.142 45.42 147.342 45.64 146.409 45.64C145.476 45.64 144.636 45.4133 143.889 44.96C143.142 44.5067 142.556 43.8533 142.129 43C141.716 42.1333 141.509 41.12 141.509 39.96C141.509 38.8 141.716 37.7933 142.129 36.94C142.556 36.0733 143.142 35.4133 143.889 34.96C144.636 34.5067 145.476 34.28 146.409 34.28ZM147.289 36.74C146.409 36.74 145.702 37.0267 145.169 37.6C144.636 38.1733 144.369 38.96 144.369 39.96C144.369 40.96 144.636 41.7467 145.169 42.32C145.702 42.88 146.409 43.16 147.289 43.16C148.142 43.16 148.842 42.8733 149.389 42.3C149.949 41.7133 150.229 40.9333 150.229 39.96C150.229 38.9733 149.949 38.1933 149.389 37.62C148.842 37.0333 148.142 36.74 147.289 36.74ZM155.265 31.24C155.265 30.7867 155.425 30.42 155.745 30.14C156.065 29.8467 156.485 29.7 157.005 29.7C157.525 29.7 157.945 29.8467 158.265 30.14C158.585 30.42 158.745 30.7867 158.745 31.24C158.745 31.68 158.585 32.0467 158.265 32.34C157.945 32.62 157.525 32.76 157.005 32.76C156.485 32.76 156.065 32.62 155.745 32.34C155.425 32.0467 155.265 31.68 155.265 31.24ZM158.405 34.42V45.5H155.585V34.42H158.405ZM167.556 34.26C168.836 34.26 169.856 34.68 170.616 35.52C171.376 36.36 171.756 37.54 171.756 39.06V45.5H168.956V39.38C168.956 38.5 168.729 37.82 168.276 37.34C167.822 36.8467 167.202 36.6 166.416 36.6C165.616 36.6 164.976 36.86 164.496 37.38C164.016 37.9 163.776 38.6467 163.776 39.62V45.5H160.956V34.42H163.776V36.64C164.069 35.8933 164.549 35.3133 165.216 34.9C165.896 34.4733 166.676 34.26 167.556 34.26ZM184.657 39.54C184.657 39.82 184.624 40.14 184.557 40.5H176.437C176.477 41.4867 176.744 42.2133 177.237 42.68C177.73 43.1467 178.344 43.38 179.077 43.38C179.73 43.38 180.27 43.22 180.697 42.9C181.137 42.58 181.417 42.1467 181.537 41.6H184.517C184.37 42.3733 184.057 43.0667 183.577 43.68C183.097 44.2933 182.477 44.7733 181.717 45.12C180.97 45.4667 180.137 45.64 179.217 45.64C178.137 45.64 177.177 45.4133 176.337 44.96C175.497 44.4933 174.844 43.8333 174.377 42.98C173.91 42.1267 173.677 41.12 173.677 39.96C173.677 38.8 173.91 37.7933 174.377 36.94C174.844 36.0733 175.497 35.4133 176.337 34.96C177.177 34.5067 178.137 34.28 179.217 34.28C180.31 34.28 181.264 34.5067 182.077 34.96C182.904 35.4133 183.537 36.04 183.977 36.84C184.43 37.6267 184.657 38.5267 184.657 39.54ZM181.817 39.26C181.857 38.3533 181.617 37.6667 181.097 37.2C180.59 36.7333 179.964 36.5 179.217 36.5C178.457 36.5 177.817 36.7333 177.297 37.2C176.777 37.6667 176.49 38.3533 176.437 39.26H181.817ZM197.079 39.54C197.079 39.82 197.046 40.14 196.979 40.5H188.859C188.899 41.4867 189.166 42.2133 189.659 42.68C190.152 43.1467 190.766 43.38 191.499 43.38C192.152 43.38 192.692 43.22 193.119 42.9C193.559 42.58 193.839 42.1467 193.959 41.6H196.939C196.792 42.3733 196.479 43.0667 195.999 43.68C195.519 44.2933 194.899 44.7733 194.139 45.12C193.392 45.4667 192.559 45.64 191.639 45.64C190.559 45.64 189.599 45.4133 188.759 44.96C187.919 44.4933 187.266 43.8333 186.799 42.98C186.332 42.1267 186.099 41.12 186.099 39.96C186.099 38.8 186.332 37.7933 186.799 36.94C187.266 36.0733 187.919 35.4133 188.759 34.96C189.599 34.5067 190.559 34.28 191.639 34.28C192.732 34.28 193.686 34.5067 194.499 34.96C195.326 35.4133 195.959 36.04 196.399 36.84C196.852 37.6267 197.079 38.5267 197.079 39.54ZM194.239 39.26C194.279 38.3533 194.039 37.6667 193.519 37.2C193.012 36.7333 192.386 36.5 191.639 36.5C190.879 36.5 190.239 36.7333 189.719 37.2C189.199 37.6667 188.912 38.3533 188.859 39.26H194.239ZM201.901 36.54C202.314 35.8333 202.861 35.28 203.541 34.88C204.221 34.4667 204.981 34.26 205.821 34.26V37.28H205.001C202.934 37.28 201.901 38.24 201.901 40.16V45.5H199.081V34.42H201.901V36.54ZM207.062 31.24C207.062 30.7867 207.222 30.42 207.542 30.14C207.862 29.8467 208.282 29.7 208.802 29.7C209.322 29.7 209.742 29.8467 210.062 30.14C210.382 30.42 210.542 30.7867 210.542 31.24C210.542 31.68 210.382 32.0467 210.062 32.34C209.742 32.62 209.322 32.76 208.802 32.76C208.282 32.76 207.862 32.62 207.542 32.34C207.222 32.0467 207.062 31.68 207.062 31.24ZM210.202 34.42V45.5H207.382V34.42H210.202ZM219.353 34.26C220.633 34.26 221.653 34.68 222.413 35.52C223.173 36.36 223.553 37.54 223.553 39.06V45.5H220.753V39.38C220.753 38.5 220.526 37.82 220.073 37.34C219.619 36.8467 218.999 36.6 218.213 36.6C217.413 36.6 216.773 36.86 216.293 37.38C215.813 37.9 215.573 38.6467 215.573 39.62V45.5H212.753V34.42H215.573V36.64C215.866 35.8933 216.346 35.3133 217.013 34.9C217.693 34.4733 218.473 34.26 219.353 34.26ZM230.374 34.28C231.307 34.28 232.107 34.5 232.774 34.94C233.441 35.38 233.914 35.9733 234.194 36.72V34.42H236.994V45.54C236.994 46.5667 236.787 47.4867 236.374 48.3C235.974 49.1267 235.367 49.7733 234.554 50.24C233.754 50.7067 232.781 50.94 231.634 50.94C230.034 50.94 228.741 50.56 227.754 49.8C226.767 49.04 226.167 48.0067 225.954 46.7H228.734C228.894 47.26 229.201 47.6933 229.654 48C230.121 48.32 230.714 48.48 231.434 48.48C232.261 48.48 232.927 48.2333 233.434 47.74C233.941 47.26 234.194 46.5267 234.194 45.54V43.18C233.914 43.9267 233.441 44.5267 232.774 44.98C232.107 45.42 231.307 45.64 230.374 45.64C229.441 45.64 228.601 45.4133 227.854 44.96C227.107 44.5067 226.521 43.8533 226.094 43C225.681 42.1333 225.474 41.12 225.474 39.96C225.474 38.8 225.681 37.7933 226.094 36.94C226.521 36.0733 227.107 35.4133 227.854 34.96C228.601 34.5067 229.441 34.28 230.374 34.28ZM231.254 36.74C230.374 36.74 229.667 37.0267 229.134 37.6C228.601 38.1733 228.334 38.96 228.334 39.96C228.334 40.96 228.601 41.7467 229.134 42.32C229.667 42.88 230.374 43.16 231.254 43.16C232.107 43.16 232.807 42.8733 233.354 42.3C233.914 41.7133 234.194 40.9333 234.194 39.96C234.194 38.9733 233.914 38.1933 233.354 37.62C232.807 37.0333 232.107 36.74 231.254 36.74ZM246.725 40.26V45.5H243.905V31.38H249.045C250.712 31.38 251.965 31.78 252.805 32.58C253.658 33.38 254.085 34.4667 254.085 35.84C254.085 37.1867 253.645 38.26 252.765 39.06C251.898 39.86 250.658 40.26 249.045 40.26H246.725ZM248.745 38C250.398 38 251.225 37.28 251.225 35.84C251.225 35.1333 251.032 34.5933 250.645 34.22C250.258 33.8467 249.625 33.66 248.745 33.66H246.725V38H248.745ZM261.037 34.28C262.117 34.28 263.083 34.5067 263.937 34.96C264.803 35.4133 265.483 36.0733 265.977 36.94C266.47 37.7933 266.717 38.8 266.717 39.96C266.717 41.12 266.47 42.1267 265.977 42.98C265.483 43.8333 264.803 44.4933 263.937 44.96C263.083 45.4133 262.117 45.64 261.037 45.64C259.957 45.64 258.983 45.4133 258.117 44.96C257.263 44.4933 256.59 43.8333 256.097 42.98C255.603 42.1267 255.357 41.12 255.357 39.96C255.357 38.8 255.603 37.7933 256.097 36.94C256.59 36.0733 257.263 35.4133 258.117 34.96C258.983 34.5067 259.957 34.28 261.037 34.28ZM261.037 36.72C260.25 36.72 259.583 37 259.037 37.56C258.49 38.1067 258.217 38.9067 258.217 39.96C258.217 41.0133 258.49 41.82 259.037 42.38C259.583 42.9267 260.25 43.2 261.037 43.2C261.823 43.2 262.49 42.9267 263.037 42.38C263.583 41.82 263.857 41.0133 263.857 39.96C263.857 38.9067 263.583 38.1067 263.037 37.56C262.49 37 261.823 36.72 261.037 36.72ZM271.53 36.54C271.943 35.8333 272.49 35.28 273.17 34.88C273.85 34.4667 274.61 34.26 275.45 34.26V37.28H274.63C272.563 37.28 271.53 38.24 271.53 40.16V45.5H268.71V34.42H271.53V36.54ZM282.93 43.08V45.5H281.45C280.21 45.5 279.257 45.2 278.59 44.6C277.937 44 277.61 43 277.61 41.6V36.8H276.07V34.42H277.61V31.68H280.43V34.42H282.91V36.8H280.43V41.64C280.43 42.1733 280.537 42.5467 280.75 42.76C280.964 42.9733 281.324 43.08 281.83 43.08H282.93ZM289.3 34.28C290.233 34.28 291.033 34.5 291.7 34.94C292.366 35.38 292.84 35.9733 293.12 36.72V34.42H295.92V45.5H293.12V43.18C292.84 43.9267 292.366 44.5267 291.7 44.98C291.033 45.42 290.233 45.64 289.3 45.64C288.366 45.64 287.526 45.4133 286.78 44.96C286.033 44.5067 285.446 43.8533 285.02 43C284.606 42.1333 284.4 41.12 284.4 39.96C284.4 38.8 284.606 37.7933 285.02 36.94C285.446 36.0733 286.033 35.4133 286.78 34.96C287.526 34.5067 288.366 34.28 289.3 34.28ZM290.18 36.74C289.3 36.74 288.593 37.0267 288.06 37.6C287.526 38.1733 287.26 38.96 287.26 39.96C287.26 40.96 287.526 41.7467 288.06 42.32C288.593 42.88 289.3 43.16 290.18 43.16C291.033 43.16 291.733 42.8733 292.28 42.3C292.84 41.7133 293.12 40.9333 293.12 39.96C293.12 38.9733 292.84 38.1933 292.28 37.62C291.733 37.0333 291.033 36.74 290.18 36.74ZM301.295 30.7V45.5H298.475V30.7H301.295Z" fill="black"/>
<path d="M127.672 65.852C127.672 66.9933 127.443 67.9907 126.984 68.844C126.525 69.6867 125.848 70.3427 124.952 70.812C124.067 71.2707 123 71.5 121.752 71.5H118.168V60.22H121.752C123 60.22 124.067 60.4493 124.952 60.908C125.848 61.356 126.525 62.0067 126.984 62.86C127.443 63.7027 127.672 64.7 127.672 65.852ZM121.64 70.188C123.112 70.188 124.237 69.8093 125.016 69.052C125.795 68.2947 126.184 67.228 126.184 65.852C126.184 64.476 125.795 63.4093 125.016 62.652C124.248 61.884 123.123 61.5 121.64 61.5H119.624V70.188H121.64ZM133.621 62.604C134.463 62.604 135.215 62.7853 135.877 63.148C136.549 63.5107 137.071 64.0333 137.445 64.716C137.829 65.3987 138.021 66.1987 138.021 67.116C138.021 68.0333 137.829 68.8333 137.445 69.516C137.071 70.188 136.549 70.7053 135.877 71.068C135.215 71.4307 134.463 71.612 133.621 71.612C132.778 71.612 132.021 71.4307 131.349 71.068C130.687 70.7053 130.165 70.188 129.781 69.516C129.397 68.8333 129.205 68.0333 129.205 67.116C129.205 66.1987 129.397 65.3987 129.781 64.716C130.165 64.0333 130.687 63.5107 131.349 63.148C132.021 62.7853 132.778 62.604 133.621 62.604ZM133.621 63.884C133.098 63.884 132.613 64.0013 132.165 64.236C131.727 64.4707 131.37 64.8333 131.093 65.324C130.826 65.804 130.693 66.4013 130.693 67.116C130.693 67.82 130.826 68.4173 131.093 68.908C131.37 69.388 131.727 69.7453 132.165 69.98C132.613 70.2147 133.098 70.332 133.621 70.332C134.143 70.332 134.623 70.2147 135.061 69.98C135.509 69.7453 135.866 69.388 136.133 68.908C136.41 68.4173 136.549 67.82 136.549 67.116C136.549 66.4013 136.41 65.804 136.133 65.324C135.866 64.8333 135.509 64.4707 135.061 64.236C134.623 64.0013 134.143 63.884 133.621 63.884ZM143.806 62.604C144.926 62.604 145.854 62.9027 146.59 63.5C147.326 64.0973 147.779 64.8973 147.95 65.9H146.414C146.307 65.2707 146.014 64.78 145.534 64.428C145.065 64.0653 144.478 63.884 143.774 63.884C143.262 63.884 142.793 64.0013 142.366 64.236C141.95 64.4707 141.614 64.8333 141.358 65.324C141.102 65.804 140.974 66.4013 140.974 67.116C140.974 67.8307 141.102 68.4333 141.358 68.924C141.614 69.404 141.95 69.7613 142.366 69.996C142.793 70.2307 143.262 70.348 143.774 70.348C144.478 70.348 145.065 70.1667 145.534 69.804C146.014 69.4413 146.307 68.9453 146.414 68.316H147.95C147.779 69.3293 147.326 70.1347 146.59 70.732C145.854 71.3187 144.926 71.612 143.806 71.612C142.963 71.612 142.217 71.4307 141.566 71.068C140.915 70.7053 140.403 70.188 140.03 69.516C139.667 68.8333 139.486 68.0333 139.486 67.116C139.486 66.1987 139.667 65.3987 140.03 64.716C140.403 64.0333 140.915 63.5107 141.566 63.148C142.217 62.7853 142.963 62.604 143.806 62.604ZM157.664 62.716V71.5H156.208V69.436C155.984 70.1507 155.584 70.7 155.008 71.084C154.442 71.4573 153.781 71.644 153.024 71.644C152.01 71.644 151.189 71.3187 150.56 70.668C149.93 70.0067 149.616 69.0627 149.616 67.836V62.716H151.072V67.692C151.072 68.5667 151.296 69.244 151.744 69.724C152.192 70.1933 152.8 70.428 153.568 70.428C154.368 70.428 155.008 70.172 155.488 69.66C155.968 69.1373 156.208 68.38 156.208 67.388V62.716H157.664ZM170.796 62.572C171.82 62.572 172.641 62.9027 173.26 63.564C173.889 64.2147 174.204 65.1587 174.204 66.396V71.5H172.748V66.524C172.748 65.66 172.535 64.9987 172.108 64.54C171.692 64.0813 171.116 63.852 170.38 63.852C169.612 63.852 168.993 64.108 168.524 64.62C168.065 65.1213 167.836 65.8627 167.836 66.844V71.5H166.38V66.524C166.38 65.66 166.167 64.9987 165.74 64.54C165.313 64.0813 164.737 63.852 164.012 63.852C163.233 63.852 162.609 64.108 162.14 64.62C161.681 65.1213 161.452 65.8627 161.452 66.844V71.5H159.996V62.716H161.452V64.716C161.665 64.0227 162.044 63.4947 162.588 63.132C163.143 62.7587 163.777 62.572 164.492 62.572C165.239 62.572 165.884 62.764 166.428 63.148C166.983 63.5213 167.377 64.076 167.612 64.812C167.857 64.0973 168.268 63.548 168.844 63.164C169.42 62.7693 170.071 62.572 170.796 62.572ZM184.545 66.62C184.545 66.9293 184.524 67.196 184.481 67.42H177.457C177.489 68.4227 177.772 69.1747 178.305 69.676C178.849 70.1773 179.51 70.428 180.289 70.428C180.993 70.428 181.58 70.252 182.049 69.9C182.529 69.5373 182.822 69.0573 182.929 68.46H184.481C184.374 69.068 184.134 69.612 183.761 70.092C183.398 70.572 182.924 70.9453 182.337 71.212C181.75 71.4787 181.089 71.612 180.353 71.612C179.51 71.612 178.764 71.4307 178.113 71.068C177.462 70.7053 176.95 70.188 176.577 69.516C176.214 68.8333 176.033 68.0333 176.033 67.116C176.033 66.1987 176.214 65.3987 176.577 64.716C176.95 64.0333 177.462 63.5107 178.113 63.148C178.764 62.7853 179.51 62.604 180.353 62.604C181.206 62.604 181.948 62.7853 182.577 63.148C183.217 63.5107 183.702 63.996 184.033 64.604C184.374 65.212 184.545 65.884 184.545 66.62ZM183.073 66.716C183.105 66.0653 182.998 65.5213 182.753 65.084C182.508 64.6467 182.172 64.3213 181.745 64.108C181.318 63.8947 180.854 63.788 180.353 63.788C179.553 63.788 178.881 64.0387 178.337 64.54C177.793 65.0307 177.5 65.756 177.457 66.716H183.073ZM191.073 62.572C192.097 62.572 192.924 62.9027 193.553 63.564C194.183 64.2147 194.497 65.1587 194.497 66.396V71.5H193.041V66.524C193.041 65.6493 192.817 64.9773 192.369 64.508C191.921 64.0387 191.313 63.804 190.545 63.804C189.745 63.804 189.105 64.0653 188.625 64.588C188.145 65.1 187.905 65.852 187.905 66.844V71.5H186.449V62.716H187.905V64.796C188.129 64.0813 188.524 63.532 189.089 63.148C189.665 62.764 190.327 62.572 191.073 62.572ZM200.923 70.22V71.5H199.835C198.939 71.5 198.267 71.2867 197.819 70.86C197.381 70.4333 197.163 69.7187 197.163 68.716V63.98H195.851V62.716H197.163V60.524H198.635V62.716H200.907V63.98H198.635V68.748C198.635 69.3133 198.736 69.7027 198.939 69.916C199.152 70.1187 199.515 70.22 200.027 70.22H200.923ZM217.948 60.412V71.5H216.492V62.652L212.956 71.5H211.66L208.108 62.684V71.5H206.652V60.412H208.396L212.332 69.724L216.204 60.412H217.948ZM223.877 62.604C224.731 62.604 225.451 62.8173 226.037 63.244C226.635 63.6707 227.051 64.2413 227.285 64.956V62.716H228.741V71.5H227.285V69.26C227.051 69.9747 226.635 70.5453 226.037 70.972C225.451 71.3987 224.731 71.612 223.877 71.612C223.099 71.612 222.405 71.4307 221.797 71.068C221.189 70.7053 220.709 70.188 220.357 69.516C220.016 68.8333 219.845 68.0333 219.845 67.116C219.845 66.1987 220.016 65.3987 220.357 64.716C220.709 64.0333 221.189 63.5107 221.797 63.148C222.405 62.7853 223.099 62.604 223.877 62.604ZM224.293 63.9C223.397 63.9 222.677 64.188 222.133 64.764C221.6 65.3293 221.333 66.1133 221.333 67.116C221.333 68.1187 221.6 68.908 222.133 69.484C222.677 70.0493 223.397 70.332 224.293 70.332C224.869 70.332 225.381 70.1987 225.829 69.932C226.288 69.6653 226.645 69.292 226.901 68.812C227.157 68.3213 227.285 67.756 227.285 67.116C227.285 66.476 227.157 65.9107 226.901 65.42C226.645 64.9293 226.288 64.556 225.829 64.3C225.381 64.0333 224.869 63.9 224.293 63.9ZM235.683 62.572C236.707 62.572 237.533 62.9027 238.163 63.564C238.792 64.2147 239.107 65.1587 239.107 66.396V71.5H237.651V66.524C237.651 65.6493 237.427 64.9773 236.979 64.508C236.531 64.0387 235.923 63.804 235.155 63.804C234.355 63.804 233.715 64.0653 233.235 64.588C232.755 65.1 232.515 65.852 232.515 66.844V71.5H231.059V62.716H232.515V64.796C232.739 64.0813 233.133 63.532 233.699 63.148C234.275 62.764 234.936 62.572 235.683 62.572ZM244.94 62.604C245.793 62.604 246.513 62.8173 247.1 63.244C247.697 63.6707 248.113 64.2413 248.348 64.956V62.716H249.804V71.5H248.348V69.26C248.113 69.9747 247.697 70.5453 247.1 70.972C246.513 71.3987 245.793 71.612 244.94 71.612C244.161 71.612 243.468 71.4307 242.86 71.068C242.252 70.7053 241.772 70.188 241.42 69.516C241.079 68.8333 240.908 68.0333 240.908 67.116C240.908 66.1987 241.079 65.3987 241.42 64.716C241.772 64.0333 242.252 63.5107 242.86 63.148C243.468 62.7853 244.161 62.604 244.94 62.604ZM245.356 63.9C244.46 63.9 243.74 64.188 243.196 64.764C242.663 65.3293 242.396 66.1133 242.396 67.116C242.396 68.1187 242.663 68.908 243.196 69.484C243.74 70.0493 244.46 70.332 245.356 70.332C245.932 70.332 246.444 70.1987 246.892 69.932C247.351 69.6653 247.708 69.292 247.964 68.812C248.22 68.3213 248.348 67.756 248.348 67.116C248.348 66.476 248.22 65.9107 247.964 65.42C247.708 64.9293 247.351 64.556 246.892 64.3C246.444 64.0333 245.932 63.9 245.356 63.9ZM255.721 62.604C256.574 62.604 257.294 62.8173 257.881 63.244C258.478 63.6707 258.894 64.2413 259.129 64.956V62.716H260.585V71.644C260.585 72.4547 260.414 73.1747 260.073 73.804C259.732 74.4333 259.252 74.924 258.633 75.276C258.014 75.628 257.294 75.804 256.473 75.804C255.289 75.804 254.324 75.516 253.577 74.94C252.83 74.3747 252.356 73.6067 252.153 72.636H253.593C253.764 73.2227 254.084 73.6813 254.553 74.012C255.033 74.3533 255.646 74.524 256.393 74.524C257.182 74.524 257.833 74.268 258.345 73.756C258.868 73.2547 259.129 72.5507 259.129 71.644V69.26C258.894 69.9747 258.478 70.5453 257.881 70.972C257.294 71.3987 256.574 71.612 255.721 71.612C254.942 71.612 254.249 71.4307 253.641 71.068C253.033 70.7053 252.553 70.188 252.201 69.516C251.86 68.8333 251.689 68.0333 251.689 67.116C251.689 66.1987 251.86 65.3987 252.201 64.716C252.553 64.0333 253.033 63.5107 253.641 63.148C254.249 62.7853 254.942 62.604 255.721 62.604ZM256.137 63.9C255.241 63.9 254.521 64.188 253.977 64.764C253.444 65.3293 253.177 66.1133 253.177 67.116C253.177 68.1187 253.444 68.908 253.977 69.484C254.521 70.0493 255.241 70.332 256.137 70.332C256.713 70.332 257.225 70.1987 257.673 69.932C258.132 69.6653 258.489 69.292 258.745 68.812C259.001 68.3213 259.129 67.756 259.129 67.116C259.129 66.476 259.001 65.9107 258.745 65.42C258.489 64.9293 258.132 64.556 257.673 64.3C257.225 64.0333 256.713 63.9 256.137 63.9ZM270.982 66.62C270.982 66.9293 270.961 67.196 270.918 67.42H263.894C263.926 68.4227 264.209 69.1747 264.742 69.676C265.286 70.1773 265.948 70.428 266.726 70.428C267.43 70.428 268.017 70.252 268.486 69.9C268.966 69.5373 269.26 69.0573 269.366 68.46H270.918C270.812 69.068 270.572 69.612 270.198 70.092C269.836 70.572 269.361 70.9453 268.774 71.212C268.188 71.4787 267.526 71.612 266.79 71.612C265.948 71.612 265.201 71.4307 264.55 71.068C263.9 70.7053 263.388 70.188 263.014 69.516C262.652 68.8333 262.47 68.0333 262.47 67.116C262.47 66.1987 262.652 65.3987 263.014 64.716C263.388 64.0333 263.9 63.5107 264.55 63.148C265.201 62.7853 265.948 62.604 266.79 62.604C267.644 62.604 268.385 62.7853 269.014 63.148C269.654 63.5107 270.14 63.996 270.47 64.604C270.812 65.212 270.982 65.884 270.982 66.62ZM269.51 66.716C269.542 66.0653 269.436 65.5213 269.19 65.084C268.945 64.6467 268.609 64.3213 268.182 64.108C267.756 63.8947 267.292 63.788 266.79 63.788C265.99 63.788 265.318 64.0387 264.774 64.54C264.23 65.0307 263.937 65.756 263.894 66.716H269.51ZM283.687 62.572C284.711 62.572 285.532 62.9027 286.151 63.564C286.78 64.2147 287.095 65.1587 287.095 66.396V71.5H285.639V66.524C285.639 65.66 285.425 64.9987 284.999 64.54C284.583 64.0813 284.007 63.852 283.271 63.852C282.503 63.852 281.884 64.108 281.415 64.62C280.956 65.1213 280.727 65.8627 280.727 66.844V71.5H279.271V66.524C279.271 65.66 279.057 64.9987 278.631 64.54C278.204 64.0813 277.628 63.852 276.903 63.852C276.124 63.852 275.5 64.108 275.031 64.62C274.572 65.1213 274.343 65.8627 274.343 66.844V71.5H272.887V62.716H274.343V64.716C274.556 64.0227 274.935 63.4947 275.479 63.132C276.033 62.7587 276.668 62.572 277.383 62.572C278.129 62.572 278.775 62.764 279.319 63.148C279.873 63.5213 280.268 64.076 280.503 64.812C280.748 64.0973 281.159 63.548 281.735 63.164C282.311 62.7693 282.961 62.572 283.687 62.572ZM297.436 66.62C297.436 66.9293 297.414 67.196 297.372 67.42H290.348C290.38 68.4227 290.662 69.1747 291.196 69.676C291.74 70.1773 292.401 70.428 293.18 70.428C293.884 70.428 294.47 70.252 294.94 69.9C295.42 69.5373 295.713 69.0573 295.82 68.46H297.372C297.265 69.068 297.025 69.612 296.652 70.092C296.289 70.572 295.814 70.9453 295.228 71.212C294.641 71.4787 293.98 71.612 293.244 71.612C292.401 71.612 291.654 71.4307 291.004 71.068C290.353 70.7053 289.841 70.188 289.468 69.516C289.105 68.8333 288.924 68.0333 288.924 67.116C288.924 66.1987 289.105 65.3987 289.468 64.716C289.841 64.0333 290.353 63.5107 291.004 63.148C291.654 62.7853 292.401 62.604 293.244 62.604C294.097 62.604 294.838 62.7853 295.468 63.148C296.108 63.5107 296.593 63.996 296.924 64.604C297.265 65.212 297.436 65.884 297.436 66.62ZM295.964 66.716C295.996 66.0653 295.889 65.5213 295.644 65.084C295.398 64.6467 295.062 64.3213 294.636 64.108C294.209 63.8947 293.745 63.788 293.244 63.788C292.444 63.788 291.772 64.0387 291.228 64.54C290.684 65.0307 290.39 65.756 290.348 66.716H295.964ZM303.964 62.572C304.988 62.572 305.815 62.9027 306.444 63.564C307.073 64.2147 307.388 65.1587 307.388 66.396V71.5H305.932V66.524C305.932 65.6493 305.708 64.9773 305.26 64.508C304.812 64.0387 304.204 63.804 303.436 63.804C302.636 63.804 301.996 64.0653 301.516 64.588C301.036 65.1 300.796 65.852 300.796 66.844V71.5H299.34V62.716H300.796V64.796C301.02 64.0813 301.415 63.532 301.98 63.148C302.556 62.764 303.217 62.572 303.964 62.572ZM313.813 70.22V71.5H312.725C311.829 71.5 311.157 71.2867 310.709 70.86C310.272 70.4333 310.053 69.7187 310.053 68.716V63.98H308.741V62.716H310.053V60.524H311.525V62.716H313.797V63.98H311.525V68.748C311.525 69.3133 311.626 69.7027 311.829 69.916C312.042 70.1187 312.405 70.22 312.917 70.22H313.813ZM326.679 68.572C326.679 69.1053 326.551 69.6013 326.295 70.06C326.039 70.5187 325.65 70.892 325.127 71.18C324.604 71.468 323.959 71.612 323.191 71.612C322.444 71.612 321.778 71.4787 321.191 71.212C320.615 70.9347 320.151 70.5613 319.799 70.092C319.458 69.612 319.26 69.068 319.207 68.46H320.759C320.791 68.78 320.898 69.0947 321.079 69.404C321.271 69.7027 321.538 69.9533 321.879 70.156C322.231 70.348 322.652 70.444 323.143 70.444C323.783 70.444 324.274 70.2733 324.615 69.932C324.956 69.5907 325.127 69.1533 325.127 68.62C325.127 68.1613 325.004 67.788 324.759 67.5C324.524 67.212 324.231 66.988 323.879 66.828C323.527 66.6573 323.047 66.476 322.439 66.284C321.724 66.0493 321.148 65.8307 320.711 65.628C320.284 65.4147 319.916 65.1 319.607 64.684C319.308 64.268 319.159 63.7187 319.159 63.036C319.159 62.4493 319.298 61.932 319.575 61.484C319.863 61.036 320.268 60.6893 320.791 60.444C321.324 60.1987 321.948 60.076 322.663 60.076C323.772 60.076 324.652 60.348 325.303 60.892C325.954 61.4253 326.332 62.108 326.439 62.94H324.871C324.786 62.492 324.556 62.0973 324.183 61.756C323.81 61.4147 323.303 61.244 322.663 61.244C322.076 61.244 321.607 61.3987 321.255 61.708C320.903 62.0067 320.727 62.4333 320.727 62.988C320.727 63.4253 320.839 63.7827 321.063 64.06C321.298 64.3267 321.586 64.54 321.927 64.7C322.268 64.8493 322.738 65.02 323.335 65.212C324.06 65.4467 324.642 65.6707 325.079 65.884C325.527 66.0973 325.906 66.4227 326.215 66.86C326.524 67.2867 326.679 67.8573 326.679 68.572ZM329.245 62.716L332.093 69.628L334.733 62.716H336.349L331.133 75.66H329.485L331.309 71.356L327.613 62.716H329.245ZM340.436 62.604C341.428 62.604 342.222 62.8653 342.82 63.388C343.428 63.9 343.796 64.5933 343.924 65.468H342.532C342.468 64.9453 342.249 64.5187 341.876 64.188C341.513 63.8467 341.022 63.676 340.404 63.676C339.881 63.676 339.47 63.804 339.172 64.06C338.884 64.3053 338.74 64.6413 338.74 65.068C338.74 65.388 338.836 65.6493 339.028 65.852C339.23 66.044 339.476 66.1933 339.764 66.3C340.062 66.396 340.468 66.5027 340.98 66.62C341.63 66.7693 342.153 66.924 342.548 67.084C342.953 67.2333 343.294 67.4787 343.572 67.82C343.86 68.1613 344.004 68.62 344.004 69.196C344.004 69.9107 343.732 70.492 343.188 70.94C342.654 71.388 341.94 71.612 341.044 71.612C339.998 71.612 339.145 71.3613 338.484 70.86C337.822 70.3587 337.433 69.66 337.316 68.764H338.724C338.777 69.2973 339.006 69.7293 339.412 70.06C339.828 70.3907 340.372 70.556 341.044 70.556C341.545 70.556 341.934 70.428 342.212 70.172C342.5 69.916 342.644 69.58 342.644 69.164C342.644 68.8227 342.542 68.5507 342.34 68.348C342.137 68.1453 341.886 67.9907 341.588 67.884C341.289 67.7773 340.878 67.6653 340.356 67.548C339.705 67.3987 339.182 67.2493 338.788 67.1C338.404 66.9507 338.073 66.716 337.796 66.396C337.529 66.0653 337.396 65.6227 337.396 65.068C337.396 64.332 337.668 63.74 338.212 63.292C338.756 62.8333 339.497 62.604 340.436 62.604ZM350.141 70.22V71.5H349.053C348.157 71.5 347.485 71.2867 347.037 70.86C346.6 70.4333 346.381 69.7187 346.381 68.716V63.98H345.069V62.716H346.381V60.524H347.853V62.716H350.125V63.98H347.853V68.748C347.853 69.3133 347.955 69.7027 348.157 69.916C348.371 70.1187 348.733 70.22 349.245 70.22H350.141ZM359.998 66.62C359.998 66.9293 359.977 67.196 359.934 67.42H352.91C352.942 68.4227 353.225 69.1747 353.758 69.676C354.302 70.1773 354.963 70.428 355.742 70.428C356.446 70.428 357.033 70.252 357.502 69.9C357.982 69.5373 358.275 69.0573 358.382 68.46H359.934C359.827 69.068 359.587 69.612 359.214 70.092C358.851 70.572 358.377 70.9453 357.79 71.212C357.203 71.4787 356.542 71.612 355.806 71.612C354.963 71.612 354.217 71.4307 353.566 71.068C352.915 70.7053 352.403 70.188 352.03 69.516C351.667 68.8333 351.486 68.0333 351.486 67.116C351.486 66.1987 351.667 65.3987 352.03 64.716C352.403 64.0333 352.915 63.5107 353.566 63.148C354.217 62.7853 354.963 62.604 355.806 62.604C356.659 62.604 357.401 62.7853 358.03 63.148C358.67 63.5107 359.155 63.996 359.486 64.604C359.827 65.212 359.998 65.884 359.998 66.62ZM358.526 66.716C358.558 66.0653 358.451 65.5213 358.206 65.084C357.961 64.6467 357.625 64.3213 357.198 64.108C356.771 63.8947 356.307 63.788 355.806 63.788C355.006 63.788 354.334 64.0387 353.79 64.54C353.246 65.0307 352.953 65.756 352.91 66.716H358.526ZM372.702 62.572C373.726 62.572 374.548 62.9027 375.166 63.564C375.796 64.2147 376.11 65.1587 376.11 66.396V71.5H374.654V66.524C374.654 65.66 374.441 64.9987 374.014 64.54C373.598 64.0813 373.022 63.852 372.286 63.852C371.518 63.852 370.9 64.108 370.43 64.62C369.972 65.1213 369.742 65.8627 369.742 66.844V71.5H368.286V66.524C368.286 65.66 368.073 64.9987 367.646 64.54C367.22 64.0813 366.644 63.852 365.918 63.852C365.14 63.852 364.516 64.108 364.046 64.62C363.588 65.1213 363.358 65.8627 363.358 66.844V71.5H361.902V62.716H363.358V64.716C363.572 64.0227 363.95 63.4947 364.494 63.132C365.049 62.7587 365.684 62.572 366.398 62.572C367.145 62.572 367.79 62.764 368.334 63.148C368.889 63.5213 369.284 64.076 369.518 64.812C369.764 64.0973 370.174 63.548 370.75 63.164C371.326 62.7693 371.977 62.572 372.702 62.572Z" fill="black"/>
</svg>
