<svg width="24" height="25" viewBox="0 0 24 25" fill="none" xmlns="http://www.w3.org/2000/svg">
<path d="M21.9998 11.2H4.41379L9.70679 5.90703C9.8023 5.81479 9.87848 5.70444 9.93089 5.58244C9.9833 5.46043 10.0109 5.32921 10.012 5.19643C10.0132 5.06365 9.98789 4.93197 9.93761 4.80908C9.88733 4.68618 9.81307 4.57453 9.71918 4.48064C9.62529 4.38674 9.51364 4.31249 9.39074 4.26221C9.26784 4.21193 9.13616 4.18663 9.00339 4.18778C8.87061 4.18894 8.73939 4.21652 8.61738 4.26893C8.49538 4.32134 8.38503 4.39752 8.29279 4.49303L1.29279 11.493C1.10532 11.6806 1 11.9349 1 12.2C1 12.4652 1.10532 12.7195 1.29279 12.907L8.29279 19.907C8.48139 20.0892 8.73399 20.19 8.99619 20.1877C9.25838 20.1854 9.5092 20.0803 9.6946 19.8949C9.88001 19.7094 9.98518 19.4586 9.98746 19.1964C9.98974 18.9342 9.88894 18.6816 9.70679 18.493L4.41379 13.2H21.9998C22.265 13.2 22.5194 13.0947 22.7069 12.9071C22.8944 12.7196 22.9998 12.4652 22.9998 12.2C22.9998 11.9348 22.8944 11.6805 22.7069 11.4929C22.5194 11.3054 22.265 11.2 21.9998 11.2Z" fill="#215294"/>
</svg>
