<svg width="16" height="16" viewBox="0 0 16 16" fill="none" xmlns="http://www.w3.org/2000/svg">
<path d="M4.99997 8.00003C4.9999 7.93436 5.01281 7.86933 5.03795 7.80866C5.06309 7.748 5.09997 7.6929 5.14647 7.64653L10.1465 2.64653C10.3418 2.45116 10.6582 2.45116 10.8535 2.64653C11.0487 2.84191 11.0488 3.15828 10.8535 3.35353L6.20697 8.00003L10.8535 12.6465C11.0488 12.8419 11.0488 13.1583 10.8535 13.3535C10.6581 13.5488 10.3417 13.5489 10.1465 13.3535L5.14647 8.35353C5.09997 8.30716 5.06309 8.25206 5.03795 8.1914C5.01281 8.13073 4.9999 8.0657 4.99997 8.00003Z" fill="#6C7A91"/>
</svg>
