<svg width="16" height="9" viewBox="0 0 16 9" fill="none" xmlns="http://www.w3.org/2000/svg">
<path d="M8.43746 8.32499C8.52775 8.32509 8.61717 8.30734 8.70059 8.27277C8.784 8.2382 8.85976 8.18749 8.92352 8.12356L15.7985 1.24856C16.0672 0.979916 16.0672 0.5449 15.7985 0.276432C15.5299 0.00796288 15.0949 0.00779102 14.8264 0.276432L8.43746 6.66537L2.04852 0.276432C1.77988 0.00779102 1.34486 0.00779102 1.07639 0.276432C0.807925 0.545072 0.807754 0.980088 1.07639 1.24856L7.95139 8.12356C8.01515 8.18749 8.09092 8.2382 8.17433 8.27277C8.25774 8.30734 8.34716 8.32509 8.43746 8.32499Z" fill="white"/>
</svg>
