<svg width="16" height="16" viewBox="0 0 16 16" fill="none" xmlns="http://www.w3.org/2000/svg">
<path d="M11 8.00003C11.0001 7.93436 10.9872 7.86933 10.9621 7.80866C10.9369 7.748 10.9 7.6929 10.8535 7.64653L5.85353 2.64653C5.65816 2.45116 5.34178 2.45116 5.14653 2.64653C4.95128 2.84191 4.95116 3.15828 5.14653 3.35353L9.79303 8.00003L5.14653 12.6465C4.95116 12.8419 4.95116 13.1583 5.14653 13.3535C5.34191 13.5488 5.65828 13.5489 5.85353 13.3535L10.8535 8.35353C10.9 8.30716 10.9369 8.25206 10.9621 8.1914C10.9872 8.13073 11.0001 8.0657 11 8.00003Z" fill="#6C7A91"/>
</svg>
