<svg width="20" height="20" viewBox="0 0 20 20" fill="none" xmlns="http://www.w3.org/2000/svg">
<g clip-path="url(#clip0_591_173)">
<path d="M18.3332 9.63888C18.3332 14.0415 14.6017 17.6111 9.99984 17.6111C9.45875 17.6119 8.91917 17.5618 8.38767 17.462C8.00511 17.3901 7.81382 17.3542 7.68028 17.3746C7.54673 17.395 7.35749 17.4956 6.979 17.697C5.90829 18.2664 4.6598 18.4675 3.4591 18.2441C3.91545 17.6828 4.22713 17.0093 4.36465 16.2873C4.44799 15.8456 4.2415 15.4166 3.93225 15.1025C2.52761 13.6762 1.6665 11.7542 1.6665 9.63888C1.6665 5.23627 5.39799 1.66663 9.99984 1.66663C14.6017 1.66663 18.3332 5.23627 18.3332 9.63888Z" stroke="#215294" stroke-width="1.5" stroke-linejoin="round"/>
<path d="M9.99609 10H10.0036M13.3257 10H13.3332M6.6665 10H6.67398" stroke="#215294" stroke-width="2" stroke-linecap="round" stroke-linejoin="round"/>
</g>
<defs>
<clipPath id="clip0_591_173">
<rect width="20" height="20" fill="white"/>
</clipPath>
</defs>
</svg>
