<svg width="20" height="21" viewBox="0 0 20 21" fill="none" xmlns="http://www.w3.org/2000/svg">
<path d="M14.1668 11.8665V16.8665M11.6668 14.3665H16.6668M5.00016 8.5332H6.66683C7.5873 8.5332 8.3335 7.78701 8.3335 6.86654V5.19987C8.3335 4.2794 7.5873 3.5332 6.66683 3.5332H5.00016C4.07969 3.5332 3.3335 4.2794 3.3335 5.19987V6.86654C3.3335 7.78701 4.07969 8.5332 5.00016 8.5332ZM13.3335 8.5332H15.0002C15.9206 8.5332 16.6668 7.78701 16.6668 6.86654V5.19987C16.6668 4.2794 15.9206 3.5332 15.0002 3.5332H13.3335C12.413 3.5332 11.6668 4.2794 11.6668 5.19987V6.86654C11.6668 7.78701 12.413 8.5332 13.3335 8.5332ZM5.00016 16.8665H6.66683C7.5873 16.8665 8.3335 16.1203 8.3335 15.1999V13.5332C8.3335 12.6127 7.5873 11.8665 6.66683 11.8665H5.00016C4.07969 11.8665 3.3335 12.6127 3.3335 13.5332V15.1999C3.3335 16.1203 4.07969 16.8665 5.00016 16.8665Z" stroke="white" stroke-width="1.5" stroke-linecap="round" stroke-linejoin="round"/>
</svg>
