<svg width="21" height="20" viewBox="0 0 21 20" fill="none" xmlns="http://www.w3.org/2000/svg">
<path d="M8 14.7916C7.91667 14.7916 7.84167 14.775 7.75833 14.7416C7.525 14.65 7.375 14.4166 7.375 14.1666V9.16663C7.375 8.82496 7.65833 8.54163 8 8.54163C8.34167 8.54163 8.625 8.82496 8.625 9.16663V12.6583L9.225 12.0583C9.46667 11.8166 9.86667 11.8166 10.1083 12.0583C10.35 12.3 10.35 12.7 10.1083 12.9416L8.44167 14.6083C8.325 14.725 8.15833 14.7916 8 14.7916Z" fill="#215294"/>
<path d="M8.00003 14.7917C7.8417 14.7917 7.68337 14.7333 7.55837 14.6083L5.8917 12.9417C5.65003 12.7 5.65003 12.3 5.8917 12.0583C6.13337 11.8167 6.53337 11.8167 6.77503 12.0583L8.4417 13.725C8.68337 13.9667 8.68337 14.3667 8.4417 14.6083C8.3167 14.7333 8.15837 14.7917 8.00003 14.7917Z" fill="#215294"/>
<path d="M12.9998 18.9583H7.99984C3.47484 18.9583 1.5415 17.025 1.5415 12.5V7.49996C1.5415 2.97496 3.47484 1.04163 7.99984 1.04163H12.1665C12.5082 1.04163 12.7915 1.32496 12.7915 1.66663C12.7915 2.00829 12.5082 2.29163 12.1665 2.29163H7.99984C4.15817 2.29163 2.7915 3.65829 2.7915 7.49996V12.5C2.7915 16.3416 4.15817 17.7083 7.99984 17.7083H12.9998C16.8415 17.7083 18.2082 16.3416 18.2082 12.5V8.33329C18.2082 7.99163 18.4915 7.70829 18.8332 7.70829C19.1748 7.70829 19.4582 7.99163 19.4582 8.33329V12.5C19.4582 17.025 17.5248 18.9583 12.9998 18.9583Z" fill="#215294"/>
<path d="M18.8332 8.95828H15.4998C12.6498 8.95828 11.5415 7.84995 11.5415 4.99995V1.66662C11.5415 1.41662 11.6915 1.18328 11.9248 1.09162C12.1582 0.991617 12.4248 1.04995 12.6082 1.22495L19.2748 7.89162C19.4498 8.06662 19.5082 8.34162 19.4082 8.57495C19.3082 8.80828 19.0832 8.95828 18.8332 8.95828ZM12.7915 3.17495V4.99995C12.7915 7.14995 13.3498 7.70828 15.4998 7.70828H17.3248L12.7915 3.17495Z" fill="#215294"/>
</svg>
