<svg width="24" height="25" viewBox="0 0 24 25" fill="none" xmlns="http://www.w3.org/2000/svg">
<path d="M4 7.19995C4.58984 7.80679 6.15973 10.2 7 10.2C7.84027 10.2 9.41016 7.80679 10 7.19995M7 9.19995V2.19995" stroke="white" stroke-width="1.5" stroke-linecap="round" stroke-linejoin="round"/>
<path d="M4 13.2V14.7442C4 17.9892 4 19.6117 4.88607 20.7107C5.06508 20.9327 5.26731 21.1349 5.48933 21.3139C6.58831 22.2 8.21082 22.2 11.4558 22.2C12.1614 22.2 12.5141 22.2 12.8372 22.086C12.9044 22.0623 12.9702 22.035 13.0345 22.0043C13.3436 21.8564 13.593 21.607 14.0919 21.1081L18.8284 16.3716C19.4065 15.7935 19.6955 15.5045 19.8478 15.1369C20 14.7694 20 14.3606 20 13.5431V10.2C20 6.42871 20 4.5431 18.8284 3.37152C17.6569 2.19995 15.7712 2.19995 12 2.19995M13 21.7V21.2C13 18.3716 13 16.9574 13.8787 16.0787C14.7574 15.2 16.1716 15.2 19 15.2H19.5" stroke="white" stroke-width="1.5" stroke-linecap="round" stroke-linejoin="round"/>
</svg>
