<svg width="22" height="23" viewBox="0 0 22 23" fill="none" xmlns="http://www.w3.org/2000/svg">
<path d="M11 15.7251C11.0903 15.7252 11.1797 15.7075 11.2631 15.6729C11.3465 15.6383 11.4223 15.5876 11.486 15.5237L18.361 8.6487C18.6297 8.38006 18.6297 7.94505 18.361 7.67658C18.0924 7.40811 17.6574 7.40794 17.3889 7.67658L11 14.0655L4.61102 7.67658C4.34238 7.40794 3.90736 7.40794 3.63889 7.67658C3.37043 7.94522 3.37025 8.38023 3.63889 8.6487L10.5139 15.5237C10.5777 15.5876 10.6534 15.6383 10.7368 15.6729C10.8202 15.7075 10.9097 15.7252 11 15.7251Z" fill="white"/>
</svg>
