<svg width="24" height="25" viewBox="0 0 24 25" fill="none" xmlns="http://www.w3.org/2000/svg">
<path opacity="0.5" d="M15.5799 12.1999C15.5799 14.1799 13.9799 15.7799 11.9999 15.7799C10.0199 15.7799 8.41992 14.1799 8.41992 12.1999C8.41992 10.2199 10.0199 8.61987 11.9999 8.61987C13.9799 8.61987 15.5799 10.2199 15.5799 12.1999Z" stroke="#215294" stroke-linecap="round" stroke-linejoin="round"/>
<path d="M11.9998 20.4699C15.5298 20.4699 18.8198 18.3899 21.1098 14.7899C22.0098 13.3799 22.0098 11.0099 21.1098 9.59992C18.8198 5.99992 15.5298 3.91992 11.9998 3.91992C8.46984 3.91992 5.17984 5.99992 2.88984 9.59992C1.98984 11.0099 1.98984 13.3799 2.88984 14.7899C5.17984 18.3899 8.46984 20.4699 11.9998 20.4699Z" stroke="#215294" stroke-linecap="round" stroke-linejoin="round"/>
</svg>
