<svg width="25" height="25" viewBox="0 0 25 25" fill="none" xmlns="http://www.w3.org/2000/svg">
<path d="M9.73246 12.7061C7.24401 10.8456 5.47064 8.7991 4.50234 7.64862C4.2026 7.29248 4.10438 7.03185 4.04533 6.57275C3.84311 5.00075 3.74201 4.21475 4.20295 3.70735C4.6639 3.19995 5.47904 3.19995 7.10933 3.19995H18.6407C20.271 3.19995 21.0861 3.19995 21.547 3.70735C22.008 4.21475 21.9069 5.00075 21.7047 6.57276C21.6456 7.03186 21.5474 7.29249 21.2476 7.64862C20.278 8.80057 18.5011 10.8507 16.0076 12.7135C15.782 12.8821 15.6333 13.1567 15.6057 13.4614C15.3587 16.192 15.1309 17.6876 14.9891 18.4442C14.7603 19.6657 13.0282 20.4006 12.101 21.0563C11.5491 21.4466 10.8793 20.982 10.8078 20.3778C10.6714 19.2261 10.4146 16.8864 10.1343 13.4614C10.1091 13.1539 9.95986 12.8761 9.73246 12.7061Z" stroke="white" stroke-width="1.5" stroke-linecap="round" stroke-linejoin="round"/>
</svg>
