<svg width="24" height="24" viewBox="0 0 24 24" fill="none" xmlns="http://www.w3.org/2000/svg">
<path d="M9.15957 10.87C9.05957 10.86 8.93957 10.86 8.82957 10.87C6.44957 10.79 4.55957 8.84 4.55957 6.44C4.55957 3.99 6.53957 2 8.99957 2C11.4496 2 13.4396 3.99 13.4396 6.44C13.4296 8.84 11.5396 10.79 9.15957 10.87Z" stroke="#215294" stroke-width="1.5" stroke-linecap="round" stroke-linejoin="round"/>
<path d="M16.4098 4C18.3498 4 19.9098 5.57 19.9098 7.5C19.9098 9.39 18.4098 10.93 16.5398 11C16.4598 10.99 16.3698 10.99 16.2798 11" stroke="#215294" stroke-width="1.5" stroke-linecap="round" stroke-linejoin="round"/>
<path d="M4.15973 14.56C1.73973 16.18 1.73973 18.82 4.15973 20.43C6.90973 22.27 11.4197 22.27 14.1697 20.43C16.5897 18.81 16.5897 16.17 14.1697 14.56C11.4297 12.73 6.91973 12.73 4.15973 14.56Z" stroke="#215294" stroke-width="1.5" stroke-linecap="round" stroke-linejoin="round"/>
<path d="M18.3398 20C19.0598 19.85 19.7398 19.56 20.2998 19.13C21.8598 17.96 21.8598 16.03 20.2998 14.86C19.7498 14.44 19.0798 14.16 18.3698 14" stroke="#215294" stroke-width="1.5" stroke-linecap="round" stroke-linejoin="round"/>
</svg>
