<svg width="295" height="49" viewBox="0 0 295 49" fill="none" xmlns="http://www.w3.org/2000/svg">
<path d="M4.3621 10.0701V13.2201H8.5921V15.2181H4.3621V18.5481H9.1321V20.6001H1.8421V8.0181H9.1321V10.0701H4.3621ZM16.9482 10.4841C18.1362 10.4841 19.0962 10.8621 19.8282 11.6181C20.5602 12.3621 20.9262 13.4061 20.9262 14.7501V20.6001H18.4062V15.0921C18.4062 14.3001 18.2082 13.6941 17.8122 13.2741C17.4162 12.8421 16.8762 12.6261 16.1922 12.6261C15.4962 12.6261 14.9442 12.8421 14.5362 13.2741C14.1402 13.6941 13.9422 14.3001 13.9422 15.0921V20.6001H11.4222V10.6281H13.9422V11.8701C14.2782 11.4381 14.7042 11.1021 15.2202 10.8621C15.7482 10.6101 16.3242 10.4841 16.9482 10.4841ZM27.2286 10.4661C27.9726 10.4661 28.6266 10.6161 29.1906 10.9161C29.7546 11.2041 30.1986 11.5821 30.5226 12.0501V10.6281H33.0606V20.6721C33.0606 21.5961 32.8746 22.4181 32.5026 23.1381C32.1306 23.8701 31.5726 24.4461 30.8286 24.8661C30.0846 25.2981 29.1846 25.5141 28.1286 25.5141C26.7126 25.5141 25.5486 25.1841 24.6366 24.5241C23.7366 23.8641 23.2266 22.9641 23.1066 21.8241H25.6086C25.7406 22.2801 26.0226 22.6401 26.4546 22.9041C26.8986 23.1801 27.4326 23.3181 28.0566 23.3181C28.7886 23.3181 29.3826 23.0961 29.8386 22.6521C30.2946 22.2201 30.5226 21.5601 30.5226 20.6721V19.1241C30.1986 19.5921 29.7486 19.9821 29.1726 20.2941C28.6086 20.6061 27.9606 20.7621 27.2286 20.7621C26.3886 20.7621 25.6206 20.5461 24.9246 20.1141C24.2286 19.6821 23.6766 19.0761 23.2686 18.2961C22.8726 17.5041 22.6746 16.5981 22.6746 15.5781C22.6746 14.5701 22.8726 13.6761 23.2686 12.8961C23.6766 12.1161 24.2226 11.5161 24.9066 11.0961C25.6026 10.6761 26.3766 10.4661 27.2286 10.4661ZM30.5226 15.6141C30.5226 15.0021 30.4026 14.4801 30.1626 14.0481C29.9226 13.6041 29.5986 13.2681 29.1906 13.0401C28.7826 12.8001 28.3446 12.6801 27.8766 12.6801C27.4086 12.6801 26.9766 12.7941 26.5806 13.0221C26.1846 13.2501 25.8606 13.5861 25.6086 14.0301C25.3686 14.4621 25.2486 14.9781 25.2486 15.5781C25.2486 16.1781 25.3686 16.7061 25.6086 17.1621C25.8606 17.6061 26.1846 17.9481 26.5806 18.1881C26.9886 18.4281 27.4206 18.5481 27.8766 18.5481C28.3446 18.5481 28.7826 18.4341 29.1906 18.2061C29.5986 17.9661 29.9226 17.6301 30.1626 17.1981C30.4026 16.7541 30.5226 16.2261 30.5226 15.6141ZM36.7998 9.4401C36.3558 9.4401 35.9838 9.3021 35.6838 9.0261C35.3958 8.7381 35.2518 8.3841 35.2518 7.9641C35.2518 7.5441 35.3958 7.1961 35.6838 6.9201C35.9838 6.6321 36.3558 6.4881 36.7998 6.4881C37.2438 6.4881 37.6098 6.6321 37.8978 6.9201C38.1978 7.1961 38.3478 7.5441 38.3478 7.9641C38.3478 8.3841 38.1978 8.7381 37.8978 9.0261C37.6098 9.3021 37.2438 9.4401 36.7998 9.4401ZM38.0418 10.6281V20.6001H35.5218V10.6281H38.0418ZM46.0576 10.4841C47.2456 10.4841 48.2056 10.8621 48.9376 11.6181C49.6696 12.3621 50.0356 13.4061 50.0356 14.7501V20.6001H47.5156V15.0921C47.5156 14.3001 47.3176 13.6941 46.9216 13.2741C46.5256 12.8421 45.9856 12.6261 45.3016 12.6261C44.6056 12.6261 44.0536 12.8421 43.6456 13.2741C43.2496 13.6941 43.0516 14.3001 43.0516 15.0921V20.6001H40.5316V10.6281H43.0516V11.8701C43.3876 11.4381 43.8136 11.1021 44.3296 10.8621C44.8576 10.6101 45.4336 10.4841 46.0576 10.4841ZM61.7019 15.3981C61.7019 15.7581 61.6779 16.0821 61.6299 16.3701H54.3399C54.3999 17.0901 54.6519 17.6541 55.0959 18.0621C55.5399 18.4701 56.0859 18.6741 56.7339 18.6741C57.6699 18.6741 58.3359 18.2721 58.7319 17.4681H61.4499C61.1619 18.4281 60.6099 19.2201 59.7939 19.8441C58.9779 20.4561 57.9759 20.7621 56.7879 20.7621C55.8279 20.7621 54.9639 20.5521 54.1959 20.1321C53.4399 19.7001 52.8459 19.0941 52.4139 18.3141C51.9939 17.5341 51.7839 16.6341 51.7839 15.6141C51.7839 14.5821 51.9939 13.6761 52.4139 12.8961C52.8339 12.1161 53.4219 11.5161 54.1779 11.0961C54.9339 10.6761 55.8039 10.4661 56.7879 10.4661C57.7359 10.4661 58.5819 10.6701 59.3259 11.0781C60.0819 11.4861 60.6639 12.0681 61.0719 12.8241C61.4919 13.5681 61.7019 14.4261 61.7019 15.3981ZM59.0919 14.6781C59.0799 14.0301 58.8459 13.5141 58.3899 13.1301C57.9339 12.7341 57.3759 12.5361 56.7159 12.5361C56.0919 12.5361 55.5639 12.7281 55.1319 13.1121C54.7119 13.4841 54.4539 14.0061 54.3579 14.6781H59.0919ZM72.8113 15.3981C72.8113 15.7581 72.7873 16.0821 72.7393 16.3701H65.4493C65.5093 17.0901 65.7613 17.6541 66.2053 18.0621C66.6493 18.4701 67.1953 18.6741 67.8433 18.6741C68.7793 18.6741 69.4453 18.2721 69.8413 17.4681H72.5593C72.2713 18.4281 71.7193 19.2201 70.9033 19.8441C70.0873 20.4561 69.0853 20.7621 67.8973 20.7621C66.9373 20.7621 66.0733 20.5521 65.3053 20.1321C64.5493 19.7001 63.9553 19.0941 63.5233 18.3141C63.1033 17.5341 62.8933 16.6341 62.8933 15.6141C62.8933 14.5821 63.1033 13.6761 63.5233 12.8961C63.9433 12.1161 64.5313 11.5161 65.2873 11.0961C66.0433 10.6761 66.9133 10.4661 67.8973 10.4661C68.8453 10.4661 69.6913 10.6701 70.4353 11.0781C71.1913 11.4861 71.7733 12.0681 72.1813 12.8241C72.6013 13.5681 72.8113 14.4261 72.8113 15.3981ZM70.2013 14.6781C70.1893 14.0301 69.9553 13.5141 69.4993 13.1301C69.0433 12.7341 68.4853 12.5361 67.8253 12.5361C67.2013 12.5361 66.6733 12.7281 66.2413 13.1121C65.8213 13.4841 65.5633 14.0061 65.4673 14.6781H70.2013ZM77.1707 12.1761C77.4947 11.6481 77.9147 11.2341 78.4307 10.9341C78.9587 10.6341 79.5587 10.4841 80.2307 10.4841V13.1301H79.5647C78.7727 13.1301 78.1727 13.3161 77.7647 13.6881C77.3687 14.0601 77.1707 14.7081 77.1707 15.6321V20.6001H74.6507V10.6281H77.1707V12.1761ZM83.206 9.4401C82.762 9.4401 82.39 9.3021 82.09 9.0261C81.802 8.7381 81.658 8.3841 81.658 7.9641C81.658 7.5441 81.802 7.1961 82.09 6.9201C82.39 6.6321 82.762 6.4881 83.206 6.4881C83.65 6.4881 84.016 6.6321 84.304 6.9201C84.604 7.1961 84.754 7.5441 84.754 7.9641C84.754 8.3841 84.604 8.7381 84.304 9.0261C84.016 9.3021 83.65 9.4401 83.206 9.4401ZM84.448 10.6281V20.6001H81.928V10.6281H84.448ZM92.4638 10.4841C93.6518 10.4841 94.6118 10.8621 95.3438 11.6181C96.0758 12.3621 96.4418 13.4061 96.4418 14.7501V20.6001H93.9218V15.0921C93.9218 14.3001 93.7238 13.6941 93.3278 13.2741C92.9318 12.8421 92.3918 12.6261 91.7078 12.6261C91.0118 12.6261 90.4598 12.8421 90.0518 13.2741C89.6558 13.6941 89.4578 14.3001 89.4578 15.0921V20.6001H86.9378V10.6281H89.4578V11.8701C89.7938 11.4381 90.2198 11.1021 90.7358 10.8621C91.2638 10.6101 91.8398 10.4841 92.4638 10.4841ZM102.744 10.4661C103.488 10.4661 104.142 10.6161 104.706 10.9161C105.27 11.2041 105.714 11.5821 106.038 12.0501V10.6281H108.576V20.6721C108.576 21.5961 108.39 22.4181 108.018 23.1381C107.646 23.8701 107.088 24.4461 106.344 24.8661C105.6 25.2981 104.7 25.5141 103.644 25.5141C102.228 25.5141 101.064 25.1841 100.152 24.5241C99.2522 23.8641 98.7422 22.9641 98.6222 21.8241H101.124C101.256 22.2801 101.538 22.6401 101.97 22.9041C102.414 23.1801 102.948 23.3181 103.572 23.3181C104.304 23.3181 104.898 23.0961 105.354 22.6521C105.81 22.2201 106.038 21.5601 106.038 20.6721V19.1241C105.714 19.5921 105.264 19.9821 104.688 20.2941C104.124 20.6061 103.476 20.7621 102.744 20.7621C101.904 20.7621 101.136 20.5461 100.44 20.1141C99.7442 19.6821 99.1922 19.0761 98.7842 18.2961C98.3882 17.5041 98.1902 16.5981 98.1902 15.5781C98.1902 14.5701 98.3882 13.6761 98.7842 12.8961C99.1922 12.1161 99.7382 11.5161 100.422 11.0961C101.118 10.6761 101.892 10.4661 102.744 10.4661ZM106.038 15.6141C106.038 15.0021 105.918 14.4801 105.678 14.0481C105.438 13.6041 105.114 13.2681 104.706 13.0401C104.298 12.8001 103.86 12.6801 103.392 12.6801C102.924 12.6801 102.492 12.7941 102.096 13.0221C101.7 13.2501 101.376 13.5861 101.124 14.0301C100.884 14.4621 100.764 14.9781 100.764 15.5781C100.764 16.1781 100.884 16.7061 101.124 17.1621C101.376 17.6061 101.7 17.9481 102.096 18.1881C102.504 18.4281 102.936 18.5481 103.392 18.5481C103.86 18.5481 104.298 18.4341 104.706 18.2061C105.114 17.9661 105.438 17.6301 105.678 17.1981C105.918 16.7541 106.038 16.2261 106.038 15.6141ZM124.488 11.9241C124.488 12.5961 124.326 13.2261 124.002 13.8141C123.69 14.4021 123.192 14.8761 122.508 15.2361C121.836 15.5961 120.984 15.7761 119.952 15.7761H117.846V20.6001H115.326V8.0361H119.952C120.924 8.0361 121.752 8.2041 122.436 8.5401C123.12 8.8761 123.63 9.3381 123.966 9.9261C124.314 10.5141 124.488 11.1801 124.488 11.9241ZM119.844 13.7421C120.54 13.7421 121.056 13.5861 121.392 13.2741C121.728 12.9501 121.896 12.5001 121.896 11.9241C121.896 10.7001 121.212 10.0881 119.844 10.0881H117.846V13.7421H119.844ZM130.706 20.7621C129.746 20.7621 128.882 20.5521 128.114 20.1321C127.346 19.7001 126.74 19.0941 126.296 18.3141C125.864 17.5341 125.648 16.6341 125.648 15.6141C125.648 14.5941 125.87 13.6941 126.314 12.9141C126.77 12.1341 127.388 11.5341 128.168 11.1141C128.948 10.6821 129.818 10.4661 130.778 10.4661C131.738 10.4661 132.608 10.6821 133.388 11.1141C134.168 11.5341 134.78 12.1341 135.224 12.9141C135.68 13.6941 135.908 14.5941 135.908 15.6141C135.908 16.6341 135.674 17.5341 135.206 18.3141C134.75 19.0941 134.126 19.7001 133.334 20.1321C132.554 20.5521 131.678 20.7621 130.706 20.7621ZM130.706 18.5661C131.162 18.5661 131.588 18.4581 131.984 18.2421C132.392 18.0141 132.716 17.6781 132.956 17.2341C133.196 16.7901 133.316 16.2501 133.316 15.6141C133.316 14.6661 133.064 13.9401 132.56 13.4361C132.068 12.9201 131.462 12.6621 130.742 12.6621C130.022 12.6621 129.416 12.9201 128.924 13.4361C128.444 13.9401 128.204 14.6661 128.204 15.6141C128.204 16.5621 128.438 17.2941 128.906 17.8101C129.386 18.3141 129.986 18.5661 130.706 18.5661ZM140.276 12.1761C140.6 11.6481 141.02 11.2341 141.536 10.9341C142.064 10.6341 142.664 10.4841 143.336 10.4841V13.1301H142.67C141.878 13.1301 141.278 13.3161 140.87 13.6881C140.474 14.0601 140.276 14.7081 140.276 15.6321V20.6001H137.756V10.6281H140.276V12.1761ZM147.968 12.6981V17.5221C147.968 17.8581 148.046 18.1041 148.202 18.2601C148.37 18.4041 148.646 18.4761 149.03 18.4761H150.2V20.6001H148.616C146.492 20.6001 145.43 19.5681 145.43 17.5041V12.6981H144.242V10.6281H145.43V8.1621H147.968V10.6281H150.2V12.6981H147.968ZM151.364 15.5781C151.364 14.5701 151.562 13.6761 151.958 12.8961C152.366 12.1161 152.912 11.5161 153.596 11.0961C154.292 10.6761 155.066 10.4661 155.918 10.4661C156.662 10.4661 157.31 10.6161 157.862 10.9161C158.426 11.2161 158.876 11.5941 159.212 12.0501V10.6281H161.75V20.6001H159.212V19.1421C158.888 19.6101 158.438 20.0001 157.862 20.3121C157.298 20.6121 156.644 20.7621 155.9 20.7621C155.06 20.7621 154.292 20.5461 153.596 20.1141C152.912 19.6821 152.366 19.0761 151.958 18.2961C151.562 17.5041 151.364 16.5981 151.364 15.5781ZM159.212 15.6141C159.212 15.0021 159.092 14.4801 158.852 14.0481C158.612 13.6041 158.288 13.2681 157.88 13.0401C157.472 12.8001 157.034 12.6801 156.566 12.6801C156.098 12.6801 155.666 12.7941 155.27 13.0221C154.874 13.2501 154.55 13.5861 154.298 14.0301C154.058 14.4621 153.938 14.9781 153.938 15.5781C153.938 16.1781 154.058 16.7061 154.298 17.1621C154.55 17.6061 154.874 17.9481 155.27 18.1881C155.678 18.4281 156.11 18.5481 156.566 18.5481C157.034 18.5481 157.472 18.4341 157.88 18.2061C158.288 17.9661 158.612 17.6301 158.852 17.1981C159.092 16.7541 159.212 16.2261 159.212 15.6141ZM166.731 7.2801V20.6001H164.211V7.2801H166.731Z" fill="white"/>
<path d="M5.1501 32.7721C6.1861 32.7721 7.09143 32.9774 7.8661 33.3881C8.64077 33.7988 9.2381 34.3774 9.6581 35.1241C10.0874 35.8614 10.3021 36.7154 10.3021 37.6861C10.3021 38.6474 10.0874 39.5014 9.6581 40.2481C9.2381 40.9948 8.6361 41.5734 7.8521 41.9841C7.07743 42.3948 6.17676 42.6001 5.1501 42.6001H1.4681V32.7721H5.1501ZM4.9961 40.5281C5.90143 40.5281 6.6061 40.2808 7.1101 39.7861C7.6141 39.2914 7.8661 38.5914 7.8661 37.6861C7.8661 36.7808 7.6141 36.0761 7.1101 35.5721C6.6061 35.0681 5.90143 34.8161 4.9961 34.8161H3.8621V40.5281H4.9961ZM15.196 42.7121C14.4306 42.7121 13.74 42.5488 13.124 42.2221C12.5173 41.8954 12.0366 41.4288 11.682 40.8221C11.3366 40.2154 11.164 39.5061 11.164 38.6941C11.164 37.8914 11.3413 37.1868 11.696 36.5801C12.0506 35.9641 12.536 35.4928 13.152 35.1661C13.768 34.8394 14.4586 34.6761 15.224 34.6761C15.9893 34.6761 16.68 34.8394 17.296 35.1661C17.912 35.4928 18.3973 35.9641 18.752 36.5801C19.1066 37.1868 19.284 37.8914 19.284 38.6941C19.284 39.4968 19.102 40.2061 18.738 40.8221C18.3833 41.4288 17.8933 41.8954 17.268 42.2221C16.652 42.5488 15.9613 42.7121 15.196 42.7121ZM15.196 40.6401C15.6533 40.6401 16.0406 40.4721 16.358 40.1361C16.6846 39.8001 16.848 39.3194 16.848 38.6941C16.848 38.0688 16.6893 37.5881 16.372 37.2521C16.064 36.9161 15.6813 36.7481 15.224 36.7481C14.7573 36.7481 14.37 36.9161 14.062 37.2521C13.754 37.5788 13.6 38.0594 13.6 38.6941C13.6 39.3194 13.7493 39.8001 14.048 40.1361C14.356 40.4721 14.7386 40.6401 15.196 40.6401ZM20.078 38.6941C20.078 37.8821 20.2414 37.1728 20.568 36.5661C20.904 35.9594 21.366 35.4928 21.954 35.1661C22.5514 34.8394 23.2327 34.6761 23.998 34.6761C24.978 34.6761 25.7947 34.9328 26.448 35.4461C27.1107 35.9594 27.5447 36.6828 27.75 37.6161H25.202C24.9874 37.0188 24.572 36.7201 23.956 36.7201C23.5174 36.7201 23.1674 36.8928 22.906 37.2381C22.6447 37.5741 22.514 38.0594 22.514 38.6941C22.514 39.3288 22.6447 39.8188 22.906 40.1641C23.1674 40.5001 23.5174 40.6681 23.956 40.6681C24.572 40.6681 24.9874 40.3694 25.202 39.7721H27.75C27.5447 40.6868 27.1107 41.4054 26.448 41.9281C25.7854 42.4508 24.9687 42.7121 23.998 42.7121C23.2327 42.7121 22.5514 42.5488 21.954 42.2221C21.366 41.8954 20.904 41.4288 20.568 40.8221C20.2414 40.2154 20.078 39.5061 20.078 38.6941ZM36.7446 34.7881V42.6001H34.3506V41.5361C34.1079 41.8814 33.7766 42.1614 33.3566 42.3761C32.9459 42.5814 32.4886 42.6841 31.9846 42.6841C31.3873 42.6841 30.8599 42.5534 30.4026 42.2921C29.9453 42.0214 29.5906 41.6341 29.3386 41.1301C29.0866 40.6261 28.9606 40.0334 28.9606 39.3521V34.7881H31.3406V39.0301C31.3406 39.5528 31.4759 39.9588 31.7466 40.2481C32.0173 40.5374 32.3813 40.6821 32.8386 40.6821C33.3053 40.6821 33.6739 40.5374 33.9446 40.2481C34.2153 39.9588 34.3506 39.5528 34.3506 39.0301V34.7881H36.7446ZM48.4322 34.7041C49.4029 34.7041 50.1729 34.9981 50.7422 35.5861C51.3209 36.1741 51.6102 36.9908 51.6102 38.0361V42.6001H49.2302V38.3581C49.2302 37.8541 49.0949 37.4668 48.8242 37.1961C48.5629 36.9161 48.1989 36.7761 47.7322 36.7761C47.2655 36.7761 46.8969 36.9161 46.6262 37.1961C46.3649 37.4668 46.2342 37.8541 46.2342 38.3581V42.6001H43.8542V38.3581C43.8542 37.8541 43.7189 37.4668 43.4482 37.1961C43.1869 36.9161 42.8229 36.7761 42.3562 36.7761C41.8895 36.7761 41.5209 36.9161 41.2502 37.1961C40.9889 37.4668 40.8582 37.8541 40.8582 38.3581V42.6001H38.4642V34.7881H40.8582V35.7681C41.1009 35.4414 41.4182 35.1848 41.8102 34.9981C42.2022 34.8021 42.6455 34.7041 43.1402 34.7041C43.7282 34.7041 44.2509 34.8301 44.7082 35.0821C45.1749 35.3341 45.5389 35.6934 45.8002 36.1601C46.0709 35.7308 46.4395 35.3808 46.9062 35.1101C47.3729 34.8394 47.8815 34.7041 48.4322 34.7041ZM60.6485 38.5681C60.6485 38.7921 60.6345 39.0254 60.6065 39.2681H55.1885C55.2258 39.7534 55.3798 40.1268 55.6505 40.3881C55.9305 40.6401 56.2712 40.7661 56.6725 40.7661C57.2698 40.7661 57.6852 40.5141 57.9185 40.0101H60.4665C60.3358 40.5234 60.0978 40.9854 59.7525 41.3961C59.4165 41.8068 58.9918 42.1288 58.4785 42.3621C57.9652 42.5954 57.3912 42.7121 56.7565 42.7121C55.9912 42.7121 55.3098 42.5488 54.7125 42.2221C54.1152 41.8954 53.6485 41.4288 53.3125 40.8221C52.9765 40.2154 52.8085 39.5061 52.8085 38.6941C52.8085 37.8821 52.9718 37.1728 53.2985 36.5661C53.6345 35.9594 54.1012 35.4928 54.6985 35.1661C55.2958 34.8394 55.9818 34.6761 56.7565 34.6761C57.5125 34.6761 58.1845 34.8348 58.7725 35.1521C59.3605 35.4694 59.8178 35.9221 60.1445 36.5101C60.4805 37.0981 60.6485 37.7841 60.6485 38.5681ZM58.1985 37.9381C58.1985 37.5274 58.0585 37.2008 57.7785 36.9581C57.4985 36.7154 57.1485 36.5941 56.7285 36.5941C56.3272 36.5941 55.9865 36.7108 55.7065 36.9441C55.4358 37.1774 55.2678 37.5088 55.2025 37.9381H58.1985ZM66.6715 34.7041C67.5861 34.7041 68.3141 35.0028 68.8555 35.6001C69.4061 36.1881 69.6815 37.0001 69.6815 38.0361V42.6001H67.3015V38.3581C67.3015 37.8354 67.1661 37.4294 66.8955 37.1401C66.6248 36.8508 66.2608 36.7061 65.8035 36.7061C65.3461 36.7061 64.9821 36.8508 64.7115 37.1401C64.4408 37.4294 64.3055 37.8354 64.3055 38.3581V42.6001H61.9115V34.7881H64.3055V35.8241C64.5481 35.4788 64.8748 35.2081 65.2855 35.0121C65.6961 34.8068 66.1581 34.7041 66.6715 34.7041ZM75.6991 40.5701V42.6001H74.4811C73.6131 42.6001 72.9364 42.3901 72.4511 41.9701C71.9657 41.5408 71.7231 40.8454 71.7231 39.8841V36.7761H70.7711V34.7881H71.7231V32.8841H74.1171V34.7881H75.6851V36.7761H74.1171V39.9121C74.1171 40.1454 74.1731 40.3134 74.2851 40.4161C74.3971 40.5188 74.5837 40.5701 74.8451 40.5701H75.6991ZM91.1293 32.7721V42.6001H88.7353V36.7061L86.5373 42.6001H84.6053L82.3933 36.6921V42.6001H79.9993V32.7721H82.8273L85.5853 39.5761L88.3153 32.7721H91.1293ZM92.3749 38.6801C92.3749 37.8774 92.5242 37.1728 92.8229 36.5661C93.1309 35.9594 93.5462 35.4928 94.0689 35.1661C94.5916 34.8394 95.1749 34.6761 95.8189 34.6761C96.3696 34.6761 96.8502 34.7881 97.2609 35.0121C97.6809 35.2361 98.0029 35.5301 98.2269 35.8941V34.7881H100.621V42.6001H98.2269V41.4941C97.9936 41.8581 97.6669 42.1521 97.2469 42.3761C96.8362 42.6001 96.3556 42.7121 95.8049 42.7121C95.1702 42.7121 94.5916 42.5488 94.0689 42.2221C93.5462 41.8861 93.1309 41.4148 92.8229 40.8081C92.5242 40.1921 92.3749 39.4828 92.3749 38.6801ZM98.2269 38.6941C98.2269 38.0968 98.0589 37.6254 97.7229 37.2801C97.3962 36.9348 96.9949 36.7621 96.5189 36.7621C96.0429 36.7621 95.6369 36.9348 95.3009 37.2801C94.9742 37.6161 94.8109 38.0828 94.8109 38.6801C94.8109 39.2774 94.9742 39.7534 95.3009 40.1081C95.6369 40.4534 96.0429 40.6261 96.5189 40.6261C96.9949 40.6261 97.3962 40.4534 97.7229 40.1081C98.0589 39.7628 98.2269 39.2914 98.2269 38.6941ZM107.113 34.7041C108.028 34.7041 108.756 35.0028 109.297 35.6001C109.848 36.1881 110.123 37.0001 110.123 38.0361V42.6001H107.743V38.3581C107.743 37.8354 107.608 37.4294 107.337 37.1401C107.066 36.8508 106.702 36.7061 106.245 36.7061C105.788 36.7061 105.424 36.8508 105.153 37.1401C104.882 37.4294 104.747 37.8354 104.747 38.3581V42.6001H102.353V34.7881H104.747V35.8241C104.99 35.4788 105.316 35.2081 105.727 35.0121C106.138 34.8068 106.6 34.7041 107.113 34.7041ZM111.31 38.6801C111.31 37.8774 111.46 37.1728 111.758 36.5661C112.066 35.9594 112.482 35.4928 113.004 35.1661C113.527 34.8394 114.11 34.6761 114.754 34.6761C115.305 34.6761 115.786 34.7881 116.196 35.0121C116.616 35.2361 116.938 35.5301 117.162 35.8941V34.7881H119.556V42.6001H117.162V41.4941C116.929 41.8581 116.602 42.1521 116.182 42.3761C115.772 42.6001 115.291 42.7121 114.74 42.7121C114.106 42.7121 113.527 42.5488 113.004 42.2221C112.482 41.8861 112.066 41.4148 111.758 40.8081C111.46 40.1921 111.31 39.4828 111.31 38.6801ZM117.162 38.6941C117.162 38.0968 116.994 37.6254 116.658 37.2801C116.332 36.9348 115.93 36.7621 115.454 36.7621C114.978 36.7621 114.572 36.9348 114.236 37.2801C113.91 37.6161 113.746 38.0828 113.746 38.6801C113.746 39.2774 113.91 39.7534 114.236 40.1081C114.572 40.4534 114.978 40.6261 115.454 40.6261C115.93 40.6261 116.332 40.4534 116.658 40.1081C116.994 39.7628 117.162 39.2914 117.162 38.6941ZM124.256 34.6761C124.807 34.6761 125.288 34.7881 125.698 35.0121C126.118 35.2361 126.44 35.5301 126.664 35.8941V34.7881H129.058V42.5861C129.058 43.3048 128.914 43.9534 128.624 44.5321C128.344 45.1201 127.91 45.5868 127.322 45.9321C126.744 46.2774 126.02 46.4501 125.152 46.4501C123.995 46.4501 123.057 46.1748 122.338 45.6241C121.62 45.0828 121.209 44.3454 121.106 43.4121H123.472C123.547 43.7108 123.724 43.9441 124.004 44.1121C124.284 44.2894 124.63 44.3781 125.04 44.3781C125.535 44.3781 125.927 44.2334 126.216 43.9441C126.515 43.6641 126.664 43.2114 126.664 42.5861V41.4801C126.431 41.8441 126.109 42.1428 125.698 42.3761C125.288 42.6001 124.807 42.7121 124.256 42.7121C123.612 42.7121 123.029 42.5488 122.506 42.2221C121.984 41.8861 121.568 41.4148 121.26 40.8081C120.962 40.1921 120.812 39.4828 120.812 38.6801C120.812 37.8774 120.962 37.1728 121.26 36.5661C121.568 35.9594 121.984 35.4928 122.506 35.1661C123.029 34.8394 123.612 34.6761 124.256 34.6761ZM126.664 38.6941C126.664 38.0968 126.496 37.6254 126.16 37.2801C125.834 36.9348 125.432 36.7621 124.956 36.7621C124.48 36.7621 124.074 36.9348 123.738 37.2801C123.412 37.6161 123.248 38.0828 123.248 38.6801C123.248 39.2774 123.412 39.7534 123.738 40.1081C124.074 40.4534 124.48 40.6261 124.956 40.6261C125.432 40.6261 125.834 40.4534 126.16 40.1081C126.496 39.7628 126.664 39.2914 126.664 38.6941ZM138.154 38.5681C138.154 38.7921 138.14 39.0254 138.112 39.2681H132.694C132.732 39.7534 132.886 40.1268 133.156 40.3881C133.436 40.6401 133.777 40.7661 134.178 40.7661C134.776 40.7661 135.191 40.5141 135.424 40.0101H137.972C137.842 40.5234 137.604 40.9854 137.258 41.3961C136.922 41.8068 136.498 42.1288 135.984 42.3621C135.471 42.5954 134.897 42.7121 134.262 42.7121C133.497 42.7121 132.816 42.5488 132.218 42.2221C131.621 41.8954 131.154 41.4288 130.818 40.8221C130.482 40.2154 130.314 39.5061 130.314 38.6941C130.314 37.8821 130.478 37.1728 130.804 36.5661C131.14 35.9594 131.607 35.4928 132.204 35.1661C132.802 34.8394 133.488 34.6761 134.262 34.6761C135.018 34.6761 135.69 34.8348 136.278 35.1521C136.866 35.4694 137.324 35.9221 137.65 36.5101C137.986 37.0981 138.154 37.7841 138.154 38.5681ZM135.704 37.9381C135.704 37.5274 135.564 37.2008 135.284 36.9581C135.004 36.7154 134.654 36.5941 134.234 36.5941C133.833 36.5941 133.492 36.7108 133.212 36.9441C132.942 37.1774 132.774 37.5088 132.708 37.9381H135.704ZM149.385 34.7041C150.356 34.7041 151.126 34.9981 151.695 35.5861C152.274 36.1741 152.563 36.9908 152.563 38.0361V42.6001H150.183V38.3581C150.183 37.8541 150.048 37.4668 149.777 37.1961C149.516 36.9161 149.152 36.7761 148.685 36.7761C148.219 36.7761 147.85 36.9161 147.579 37.1961C147.318 37.4668 147.187 37.8541 147.187 38.3581V42.6001H144.807V38.3581C144.807 37.8541 144.672 37.4668 144.401 37.1961C144.14 36.9161 143.776 36.7761 143.309 36.7761C142.843 36.7761 142.474 36.9161 142.203 37.1961C141.942 37.4668 141.811 37.8541 141.811 38.3581V42.6001H139.417V34.7881H141.811V35.7681C142.054 35.4414 142.371 35.1848 142.763 34.9981C143.155 34.8021 143.599 34.7041 144.093 34.7041C144.681 34.7041 145.204 34.8301 145.661 35.0821C146.128 35.3341 146.492 35.6934 146.753 36.1601C147.024 35.7308 147.393 35.3808 147.859 35.1101C148.326 34.8394 148.835 34.7041 149.385 34.7041ZM161.602 38.5681C161.602 38.7921 161.588 39.0254 161.56 39.2681H156.142C156.179 39.7534 156.333 40.1268 156.604 40.3881C156.884 40.6401 157.224 40.7661 157.626 40.7661C158.223 40.7661 158.638 40.5141 158.872 40.0101H161.42C161.289 40.5234 161.051 40.9854 160.706 41.3961C160.37 41.8068 159.945 42.1288 159.432 42.3621C158.918 42.5954 158.344 42.7121 157.71 42.7121C156.944 42.7121 156.263 42.5488 155.666 42.2221C155.068 41.8954 154.602 41.4288 154.266 40.8221C153.93 40.2154 153.762 39.5061 153.762 38.6941C153.762 37.8821 153.925 37.1728 154.252 36.5661C154.588 35.9594 155.054 35.4928 155.652 35.1661C156.249 34.8394 156.935 34.6761 157.71 34.6761C158.466 34.6761 159.138 34.8348 159.726 35.1521C160.314 35.4694 160.771 35.9221 161.098 36.5101C161.434 37.0981 161.602 37.7841 161.602 38.5681ZM159.152 37.9381C159.152 37.5274 159.012 37.2008 158.732 36.9581C158.452 36.7154 158.102 36.5941 157.682 36.5941C157.28 36.5941 156.94 36.7108 156.66 36.9441C156.389 37.1774 156.221 37.5088 156.156 37.9381H159.152ZM167.625 34.7041C168.539 34.7041 169.267 35.0028 169.809 35.6001C170.359 36.1881 170.635 37.0001 170.635 38.0361V42.6001H168.255V38.3581C168.255 37.8354 168.119 37.4294 167.849 37.1401C167.578 36.8508 167.214 36.7061 166.757 36.7061C166.299 36.7061 165.935 36.8508 165.665 37.1401C165.394 37.4294 165.259 37.8354 165.259 38.3581V42.6001H162.865V34.7881H165.259V35.8241C165.501 35.4788 165.828 35.2081 166.239 35.0121C166.649 34.8068 167.111 34.7041 167.625 34.7041ZM176.652 40.5701V42.6001H175.434C174.566 42.6001 173.89 42.3901 173.404 41.9701C172.919 41.5408 172.676 40.8454 172.676 39.8841V36.7761H171.724V34.7881H172.676V32.8841H175.07V34.7881H176.638V36.7761H175.07V39.9121C175.07 40.1454 175.126 40.3134 175.238 40.4161C175.35 40.5188 175.537 40.5701 175.798 40.5701H176.652ZM184.508 42.6981C183.79 42.6981 183.146 42.5814 182.576 42.3481C182.007 42.1148 181.55 41.7694 181.204 41.3121C180.868 40.8548 180.691 40.3041 180.672 39.6601H183.22C183.258 40.0241 183.384 40.3041 183.598 40.5001C183.813 40.6868 184.093 40.7801 184.438 40.7801C184.793 40.7801 185.073 40.7008 185.278 40.5421C185.484 40.3741 185.586 40.1454 185.586 39.8561C185.586 39.6134 185.502 39.4128 185.334 39.2541C185.176 39.0954 184.975 38.9648 184.732 38.8621C184.499 38.7594 184.163 38.6428 183.724 38.5121C183.09 38.3161 182.572 38.1201 182.17 37.9241C181.769 37.7281 181.424 37.4388 181.134 37.0561C180.845 36.6734 180.7 36.1741 180.7 35.5581C180.7 34.6434 181.032 33.9294 181.694 33.4161C182.357 32.8934 183.22 32.6321 184.284 32.6321C185.367 32.6321 186.24 32.8934 186.902 33.4161C187.565 33.9294 187.92 34.6481 187.966 35.5721H185.376C185.358 35.2548 185.241 35.0074 185.026 34.8301C184.812 34.6434 184.536 34.5501 184.2 34.5501C183.911 34.5501 183.678 34.6294 183.5 34.7881C183.323 34.9374 183.234 35.1568 183.234 35.4461C183.234 35.7634 183.384 36.0108 183.682 36.1881C183.981 36.3654 184.448 36.5568 185.082 36.7621C185.717 36.9768 186.23 37.1821 186.622 37.3781C187.024 37.5741 187.369 37.8588 187.658 38.2321C187.948 38.6054 188.092 39.0861 188.092 39.6741C188.092 40.2341 187.948 40.7428 187.658 41.2001C187.378 41.6574 186.968 42.0214 186.426 42.2921C185.885 42.5628 185.246 42.6981 184.508 42.6981ZM197.546 34.7881L192.646 46.3101H190.07L191.862 42.3341L188.684 34.7881H191.358L193.164 39.6741L194.956 34.7881H197.546ZM201.589 42.7121C200.908 42.7121 200.301 42.5954 199.769 42.3621C199.237 42.1288 198.817 41.8114 198.509 41.4101C198.201 40.9994 198.029 40.5421 197.991 40.0381H200.357C200.385 40.3088 200.511 40.5281 200.735 40.6961C200.959 40.8641 201.235 40.9481 201.561 40.9481C201.86 40.9481 202.089 40.8921 202.247 40.7801C202.415 40.6588 202.499 40.5048 202.499 40.3181C202.499 40.0941 202.383 39.9308 202.149 39.8281C201.916 39.7161 201.538 39.5948 201.015 39.4641C200.455 39.3334 199.989 39.1981 199.615 39.0581C199.242 38.9088 198.92 38.6801 198.649 38.3721C198.379 38.0548 198.243 37.6301 198.243 37.0981C198.243 36.6501 198.365 36.2441 198.607 35.8801C198.859 35.5068 199.223 35.2128 199.699 34.9981C200.185 34.7834 200.759 34.6761 201.421 34.6761C202.401 34.6761 203.171 34.9188 203.731 35.4041C204.301 35.8894 204.627 36.5334 204.711 37.3361H202.499C202.462 37.0654 202.341 36.8508 202.135 36.6921C201.939 36.5334 201.678 36.4541 201.351 36.4541C201.071 36.4541 200.857 36.5101 200.707 36.6221C200.558 36.7248 200.483 36.8694 200.483 37.0561C200.483 37.2801 200.6 37.4481 200.833 37.5601C201.076 37.6721 201.449 37.7841 201.953 37.8961C202.532 38.0454 203.003 38.1948 203.367 38.3441C203.731 38.4841 204.049 38.7174 204.319 39.0441C204.599 39.3614 204.744 39.7908 204.753 40.3321C204.753 40.7894 204.623 41.2001 204.361 41.5641C204.109 41.9188 203.741 42.1988 203.255 42.4041C202.779 42.6094 202.224 42.7121 201.589 42.7121ZM210.572 40.5701V42.6001H209.354C208.486 42.6001 207.809 42.3901 207.324 41.9701C206.839 41.5408 206.596 40.8454 206.596 39.8841V36.7761H205.644V34.7881H206.596V32.8841H208.99V34.7881H210.558V36.7761H208.99V39.9121C208.99 40.1454 209.046 40.3134 209.158 40.4161C209.27 40.5188 209.457 40.5701 209.718 40.5701H210.572ZM219.27 38.5681C219.27 38.7921 219.256 39.0254 219.228 39.2681H213.81C213.847 39.7534 214.001 40.1268 214.272 40.3881C214.552 40.6401 214.892 40.7661 215.294 40.7661C215.891 40.7661 216.306 40.5141 216.54 40.0101H219.088C218.957 40.5234 218.719 40.9854 218.374 41.3961C218.038 41.8068 217.613 42.1288 217.1 42.3621C216.586 42.5954 216.012 42.7121 215.378 42.7121C214.612 42.7121 213.931 42.5488 213.334 42.2221C212.736 41.8954 212.27 41.4288 211.934 40.8221C211.598 40.2154 211.43 39.5061 211.43 38.6941C211.43 37.8821 211.593 37.1728 211.92 36.5661C212.256 35.9594 212.722 35.4928 213.32 35.1661C213.917 34.8394 214.603 34.6761 215.378 34.6761C216.134 34.6761 216.806 34.8348 217.394 35.1521C217.982 35.4694 218.439 35.9221 218.766 36.5101C219.102 37.0981 219.27 37.7841 219.27 38.5681ZM216.82 37.9381C216.82 37.5274 216.68 37.2008 216.4 36.9581C216.12 36.7154 215.77 36.5941 215.35 36.5941C214.948 36.5941 214.608 36.7108 214.328 36.9441C214.057 37.1774 213.889 37.5088 213.824 37.9381H216.82ZM230.501 34.7041C231.471 34.7041 232.241 34.9981 232.811 35.5861C233.389 36.1741 233.679 36.9908 233.679 38.0361V42.6001H231.299V38.3581C231.299 37.8541 231.163 37.4668 230.893 37.1961C230.631 36.9161 230.267 36.7761 229.801 36.7761C229.334 36.7761 228.965 36.9161 228.695 37.1961C228.433 37.4668 228.303 37.8541 228.303 38.3581V42.6001H225.923V38.3581C225.923 37.8541 225.787 37.4668 225.517 37.1961C225.255 36.9161 224.891 36.7761 224.425 36.7761C223.958 36.7761 223.589 36.9161 223.319 37.1961C223.057 37.4668 222.927 37.8541 222.927 38.3581V42.6001H220.533V34.7881H222.927V35.7681C223.169 35.4414 223.487 35.1848 223.879 34.9981C224.271 34.8021 224.714 34.7041 225.209 34.7041C225.797 34.7041 226.319 34.8301 226.777 35.0821C227.243 35.3341 227.607 35.6934 227.869 36.1601C228.139 35.7308 228.508 35.3808 228.975 35.1101C229.441 34.8394 229.95 34.7041 230.501 34.7041Z" fill="white"/>
</svg>
