<svg width="56" height="56" viewBox="0 0 56 56" fill="none" xmlns="http://www.w3.org/2000/svg">
<circle cx="27.6" cy="27.6" r="27.6" fill="#F6F8FA"/>
<path d="M7.6665 44.4668V38.4763H8.98645V40.9131H13.8939V38.4763H15.1462V44.4668H13.8939V41.6239H8.98645V44.4668H7.6665Z" fill="#1D1D1B"/>
<path d="M18.5981 44.4668V38.4763H20.4258C21.3057 40.2024 22.2195 41.7931 23.0318 43.5192C23.8779 41.7592 24.7579 40.2024 25.6379 38.4763H27.4993V44.4668H26.2809L26.2471 39.3901L23.641 44.4668H22.4226L19.8166 39.424V44.4668H18.5981Z" fill="#1D1D1B"/>
<path d="M30.918 44.4668V38.4763H37.6192V39.1532H32.1702V40.947H37.2808V41.6577H32.1702V43.6884H37.7546V44.4668H30.918Z" fill="#1D1D1B"/>
<path d="M40.6987 44.4668V38.4763H41.9848V43.6207H46.6893V44.4668H40.6987Z" fill="#1D1D1B"/>
<path d="M27.4684 32.2266C29.3137 26.3922 31.8374 21.6705 32.76 18.7669C33.357 16.8402 33.3842 14.6692 32.163 12.9596C29.4222 9.13339 22.1225 10.3274 21.7697 15.8632C21.7154 16.7316 21.8511 17.6 22.0953 18.4141C22.9366 21.182 25.6502 26.2565 27.4684 32.2266Z" fill="#EE7E22"/>
<path d="M27.4678 35.4557C23.533 27.2333 18.6484 32.5792 14.6321 31.0324C9.63899 28.6444 11.6471 21.9146 17.3187 21.9688C24.13 22.0502 25.7582 28.7801 27.4678 35.4557Z" fill="#86A43D"/>
<path d="M27.4678 35.4557C31.4026 27.2334 36.3143 32.5521 40.3034 31.0325C45.2966 28.6445 43.2613 21.9146 37.6169 21.9417C30.8056 22.0503 29.1774 28.7801 27.4678 35.4557Z" fill="#86A43D"/>
<path d="M44.9295 33.4237H44.591V34.1006H44.9295C45.0987 34.1006 45.2679 34.0667 45.3356 33.9991C45.4372 33.9314 45.471 33.8637 45.471 33.7283C45.471 33.5929 45.4033 33.5252 45.3356 33.4575C45.2679 33.4237 45.0987 33.4237 44.9295 33.4237ZM44.9972 33.1529C45.3018 33.1529 45.5049 33.2206 45.6741 33.2883C45.8095 33.3899 45.8771 33.5252 45.8771 33.7283C45.8771 33.8637 45.8095 33.9991 45.7418 34.1344C45.6402 34.236 45.5387 34.2698 45.3695 34.3375L45.8433 35.2852H45.4033L44.9972 34.3713H44.591V35.2852H44.1849V33.1529H44.9972ZM46.5879 34.2698C46.5879 34.0329 46.554 33.8298 46.4525 33.6268C46.351 33.4237 46.2833 33.2545 46.1141 33.1191C45.9787 32.9837 45.7756 32.8483 45.5725 32.7468C45.3695 32.6453 45.1664 32.6114 44.9295 32.6114C44.7264 32.6114 44.5234 32.6453 44.2864 32.7468C44.1172 32.8483 43.9141 32.9499 43.7788 33.0852C43.6434 33.2206 43.508 33.4237 43.4065 33.6268C43.3049 33.8298 43.2711 34.0329 43.2711 34.2698C43.2711 34.5067 43.3049 34.6759 43.4065 34.879C43.508 35.0821 43.6095 35.2513 43.7788 35.4205C43.9141 35.5559 44.1172 35.6913 44.2864 35.7928C44.4895 35.8944 44.6926 35.9282 44.8956 35.9282C45.0987 35.9282 45.3018 35.8944 45.5387 35.7928C45.7418 35.6913 45.9448 35.5898 46.0802 35.4205C46.2156 35.2852 46.351 35.0821 46.4525 34.9129C46.5202 34.7098 46.5879 34.5067 46.5879 34.2698ZM44.9295 32.3745C45.2002 32.3745 45.4372 32.4422 45.6402 32.5099C45.8771 32.6114 46.0464 32.7468 46.2494 32.916C46.4187 33.0852 46.554 33.3222 46.6556 33.5252C46.7571 33.7621 46.791 33.9991 46.791 34.236C46.791 34.5067 46.7233 34.7436 46.6556 34.9467C46.554 35.1498 46.4187 35.3528 46.2494 35.5559C46.0802 35.759 45.8433 35.8944 45.6064 35.962C45.3695 36.0636 45.1326 36.0974 44.8956 36.0974C44.6587 36.0974 44.4218 36.0297 44.1849 35.962C43.948 35.8605 43.7788 35.7251 43.5757 35.5559C43.4065 35.3867 43.2711 35.1498 43.1696 34.9467C43.068 34.7436 43.0342 34.5067 43.0342 34.236C43.0342 33.9991 43.1019 33.7621 43.1696 33.5252C43.2373 33.2883 43.4065 33.0852 43.5757 32.8822C43.7449 32.6791 43.948 32.5776 44.1849 32.476C44.4557 32.4084 44.6926 32.3745 44.9295 32.3745Z" fill="#1D1D1B"/>
</svg>
