<svg width="24" height="25" viewBox="0 0 24 25" fill="none" xmlns="http://www.w3.org/2000/svg">
<path d="M2.52992 14.9941C2.31727 16.3472 3.268 17.2863 4.43205 17.7543C8.89481 19.5487 15.1052 19.5487 19.5679 17.7543C20.732 17.2863 21.6827 16.3472 21.4701 14.9941C21.3394 14.1626 20.6932 13.4702 20.2144 12.7941C19.5873 11.8976 19.525 10.9198 19.5249 9.87951C19.5249 5.8592 16.1559 2.6001 12 2.6001C7.84413 2.6001 4.47513 5.8592 4.47513 9.87951C4.47503 10.9198 4.41272 11.8976 3.78561 12.7941C3.30684 13.4702 2.66061 14.1626 2.52992 14.9941Z" stroke="white" stroke-width="1.5" stroke-linecap="round" stroke-linejoin="round"/>
<path d="M9 21.6001C9.79613 22.222 10.8475 22.6001 12 22.6001C13.1525 22.6001 14.2039 22.222 15 21.6001" stroke="white" stroke-width="1.5" stroke-linecap="round" stroke-linejoin="round"/>
</svg>
