<svg width="31" height="32" viewBox="0 0 31 32" fill="none" xmlns="http://www.w3.org/2000/svg">
<g clip-path="url(#clip0_565_710)">
<path d="M9.6492 20.6579H25.5197C25.6322 20.6579 25.7401 20.7026 25.8196 20.7821C25.8992 20.8616 25.9439 20.9695 25.9439 21.082C25.9439 21.1945 25.8992 21.3024 25.8196 21.3819C25.7401 21.4614 25.6322 21.5061 25.5197 21.5061H9.6492C9.5935 21.5061 9.53835 21.4952 9.48689 21.4738C9.43543 21.4525 9.38868 21.4213 9.34929 21.3819C9.30991 21.3425 9.27867 21.2958 9.25735 21.2443C9.23604 21.1929 9.22507 21.1377 9.22507 21.082C9.22507 21.0263 9.23604 20.9712 9.25735 20.9197C9.27867 20.8682 9.30991 20.8215 9.34929 20.7821C9.38868 20.7427 9.43543 20.7115 9.48689 20.6902C9.53835 20.6688 9.5935 20.6579 9.6492 20.6579ZM25.5197 23.8366H9.6492C9.53671 23.8366 9.42883 23.8813 9.34929 23.9608C9.26975 24.0403 9.22507 24.1482 9.22507 24.2607C9.22507 24.3732 9.26975 24.4811 9.34929 24.5606C9.42883 24.6402 9.53671 24.6848 9.6492 24.6848H25.5197C25.6322 24.6848 25.7401 24.6402 25.8196 24.5606C25.8992 24.4811 25.9439 24.3732 25.9439 24.2607C25.9439 24.1482 25.8992 24.0403 25.8196 23.9608C25.7401 23.8813 25.6322 23.8366 25.5197 23.8366ZM6.86525 11.9358H5.5727V13.1372H6.86507C7.02438 13.1372 7.17717 13.0739 7.28982 12.9612C7.40247 12.8486 7.46576 12.6958 7.46576 12.5365C7.46576 12.3772 7.40247 12.2244 7.28982 12.1117C7.17717 11.9991 7.02438 11.9358 6.86507 11.9358H6.86525ZM25.5197 27.0153H9.6492C9.59354 27.0153 9.53843 27.0263 9.48701 27.0476C9.43559 27.0689 9.38886 27.1001 9.34951 27.1394C9.31015 27.1788 9.27893 27.2255 9.25763 27.2769C9.23633 27.3284 9.22537 27.3835 9.22537 27.4391C9.22537 27.4948 9.23633 27.5499 9.25763 27.6013C9.27893 27.6527 9.31015 27.6995 9.34951 27.7388C9.38886 27.7782 9.43559 27.8094 9.48701 27.8307C9.53843 27.852 9.59354 27.8629 9.6492 27.8629H25.5197C25.6321 27.8629 25.74 27.8183 25.8194 27.7388C25.8989 27.6593 25.9436 27.5515 25.9436 27.4391C25.9436 27.3267 25.8989 27.2189 25.8194 27.1394C25.74 27.0599 25.6321 27.0153 25.5197 27.0153ZM11.5008 14.2408V12.8818C11.5003 12.6309 11.4003 12.3904 11.2227 12.2131C11.0451 12.0358 10.8044 11.9362 10.5535 11.9361H9.60603V15.1885H10.5535C10.8047 15.1882 11.0455 15.0883 11.2232 14.9106C11.4008 14.7329 11.5006 14.492 11.5008 14.2408ZM29.112 9.60141V28.8995C29.1109 29.5892 28.8364 30.2503 28.3485 30.7378C27.8607 31.2253 27.1994 31.4994 26.5097 31.5H8.65865C7.96902 31.4994 7.30779 31.2253 6.82004 30.7378C6.33228 30.2502 6.05785 29.5891 6.05695 28.8995V17.9466H2.79227C2.55246 17.9462 2.32258 17.8508 2.15301 17.6813C1.98344 17.5117 1.88803 17.2818 1.8877 17.042V10.0821C1.88792 9.84231 1.98329 9.61236 2.15289 9.44277C2.32248 9.27318 2.55243 9.1778 2.79227 9.17758H6.05695V3.1017C6.05771 2.41192 6.33205 1.7506 6.8198 1.26285C7.30755 0.775102 7.96887 0.500753 8.65865 0.5L20.0106 0.5C20.1229 0.50023 20.2307 0.544842 20.3103 0.624121L28.9879 9.3017C29.0671 9.38132 29.1118 9.48905 29.112 9.60141ZM6.86507 13.985C7.0553 13.985 7.24367 13.9475 7.41942 13.8747C7.59517 13.8019 7.75486 13.6952 7.88938 13.5607C8.02389 13.4262 8.13059 13.2665 8.20339 13.0908C8.27619 12.915 8.31365 12.7266 8.31365 12.5364C8.31365 12.3462 8.27619 12.1578 8.20339 11.9821C8.13059 11.8063 8.02389 11.6466 7.88938 11.5121C7.75486 11.3776 7.59517 11.2709 7.41942 11.1981C7.24367 11.1253 7.0553 11.0878 6.86507 11.0878H5.14875C5.03634 11.0878 4.92854 11.1325 4.84906 11.212C4.76957 11.2915 4.72492 11.3993 4.72492 11.5117V15.612C4.72492 15.7244 4.76957 15.8322 4.84906 15.9116C4.92854 15.9911 5.03634 16.0358 5.14875 16.0358C5.26116 16.0358 5.36896 15.9911 5.44844 15.9116C5.52792 15.8322 5.57258 15.7244 5.57258 15.612V13.9851L6.86507 13.985ZM28.2643 10.0258H21.2203C20.7871 10.0253 20.3717 9.85295 20.0654 9.5466C19.759 9.24026 19.5867 8.82492 19.5861 8.39168V1.34766H8.65865C8.19364 1.34826 7.74784 1.53326 7.41903 1.86208C7.09021 2.19089 6.90522 2.63669 6.90461 3.1017V9.17758H18.3147C18.5545 9.1778 18.7845 9.27318 18.954 9.44277C19.1236 9.61236 19.219 9.84231 19.2192 10.0821V17.042C19.2189 17.2818 19.1235 17.5117 18.9539 17.6813C18.7844 17.8508 18.5545 17.9462 18.3147 17.9466H6.90461V28.8995C6.90541 29.3644 7.09051 29.8099 7.41931 30.1385C7.74812 30.4671 8.19381 30.6519 8.65865 30.6523H26.5097C26.9746 30.652 27.4205 30.4673 27.7494 30.1387C28.0784 29.8101 28.2635 29.3645 28.2643 28.8995V10.0258ZM9.18208 16.0363H10.5535C11.0294 16.0358 11.4857 15.8464 11.8223 15.5099C12.1588 15.1733 12.3481 14.717 12.3487 14.2411V12.8818C12.3479 12.4061 12.1585 11.9501 11.822 11.6138C11.4854 11.2775 11.0292 11.0885 10.5535 11.0882H9.18208C9.06967 11.0882 8.96187 11.1328 8.88239 11.2123C8.8029 11.2918 8.75825 11.3996 8.75825 11.512V15.6123C8.75823 15.668 8.76917 15.7231 8.79046 15.7746C8.81175 15.826 8.84296 15.8728 8.88232 15.9121C8.92168 15.9515 8.96841 15.9827 9.01985 16.004C9.07128 16.0254 9.12641 16.0363 9.18208 16.0363ZM13.6411 13.1372V11.9358H15.9581C16.0705 11.9358 16.1783 11.8911 16.2578 11.8117C16.3372 11.7322 16.3819 11.6244 16.3819 11.512C16.3819 11.3996 16.3372 11.2918 16.2578 11.2123C16.1783 11.1328 16.0705 11.0881 15.9581 11.0881H13.2172C13.1048 11.0881 12.997 11.1328 12.9175 11.2123C12.838 11.2918 12.7934 11.3996 12.7934 11.512V15.6123C12.7934 15.6679 12.8044 15.723 12.8257 15.7744C12.847 15.8259 12.8782 15.8726 12.9175 15.9119C12.9569 15.9513 13.0036 15.9825 13.055 16.0038C13.1065 16.0251 13.1616 16.0361 13.2172 16.0361C13.2729 16.0361 13.328 16.0251 13.3794 16.0038C13.4308 15.9825 13.4776 15.9513 13.5169 15.9119C13.5563 15.8726 13.5875 15.8259 13.6088 15.7744C13.6301 15.723 13.6411 15.6679 13.6411 15.6123V13.9851H15.5513C15.6637 13.9851 15.7715 13.9404 15.851 13.8609C15.9305 13.7814 15.9751 13.6736 15.9751 13.5612C15.9751 13.4488 15.9305 13.341 15.851 13.2615C15.7715 13.1821 15.6637 13.1374 15.5513 13.1374L13.6411 13.1372Z" fill="#F94852"/>
</g>
<defs>
<clipPath id="clip0_565_710">
<rect width="31" height="31" fill="white" transform="translate(0 0.5)"/>
</clipPath>
</defs>
</svg>
