<svg width="25" height="25" viewBox="0 0 25 25" fill="none" xmlns="http://www.w3.org/2000/svg">
<path d="M11.9502 22.3501C6.3002 22.3501 1.7002 17.7501 1.7002 12.1001C1.7002 6.4501 6.3002 1.8501 11.9502 1.8501C17.6002 1.8501 22.2002 6.4501 22.2002 12.1001C22.2002 17.7501 17.6002 22.3501 11.9502 22.3501ZM11.9502 3.3501C7.1202 3.3501 3.2002 7.2801 3.2002 12.1001C3.2002 16.9201 7.1202 20.8501 11.9502 20.8501C16.7802 20.8501 20.7002 16.9201 20.7002 12.1001C20.7002 7.2801 16.7802 3.3501 11.9502 3.3501Z" fill="white"/>
<path d="M22.4501 23.35C22.2601 23.35 22.0701 23.28 21.9201 23.13L19.9201 21.13C19.6301 20.84 19.6301 20.36 19.9201 20.07C20.2101 19.78 20.6901 19.78 20.9801 20.07L22.9801 22.07C23.2701 22.36 23.2701 22.84 22.9801 23.13C22.8301 23.28 22.6401 23.35 22.4501 23.35Z" fill="white"/>
</svg>
