<svg width="40" height="40" viewBox="0 0 40 40" fill="none" xmlns="http://www.w3.org/2000/svg">
<path d="M22.6638 32.8029C22.7956 32.8036 22.9262 32.7782 23.0481 32.7283C23.1701 32.6783 23.2809 32.6048 23.3744 32.5119C23.4678 32.4189 23.5419 32.3085 23.5925 32.1868C23.6431 32.0651 23.6692 31.9346 23.6692 31.8029V24.6935L25.6998 26.3135C26.7238 27.1229 27.9678 25.5709 26.9465 24.7495L23.2931 21.8349C23.1126 21.6998 22.8931 21.627 22.6676 21.6272C22.4421 21.6274 22.2228 21.7008 22.0425 21.8362L18.3891 24.7509C17.3718 25.5682 18.6078 27.1269 19.6358 26.3149L21.6665 24.6949V31.8002C21.6661 31.9315 21.6917 32.0616 21.7416 32.1831C21.7915 32.3045 21.8649 32.415 21.9575 32.5081C22.0501 32.6012 22.1601 32.6751 22.2813 32.7257C22.4025 32.7763 22.5325 32.8025 22.6638 32.8029Z" fill="#215294"/>
<path d="M33.3359 8.92145H23.1319C22.4067 8.92312 21.6927 8.74212 21.0559 8.39514C20.419 8.04817 19.8798 7.5464 19.4879 6.93612L18.1279 4.82145C17.5566 3.92782 16.769 3.19273 15.8382 2.6842C14.9074 2.17566 13.8633 1.91011 12.8026 1.91212H6.66927C4.99022 1.91424 3.38054 2.58218 2.19327 3.76945C1.00599 4.95672 0.338054 6.5664 0.335938 8.24545V27.7601C0.349271 29.0641 2.32527 29.0721 2.33594 27.7601V8.24545C2.33735 7.09662 2.79435 5.99524 3.6067 5.18288C4.41905 4.37053 5.52043 3.91353 6.66927 3.91212H12.8026C13.5281 3.91086 14.2422 4.09232 14.879 4.43976C15.5159 4.7872 16.055 5.28943 16.4466 5.90012L17.8066 8.01612C18.3786 8.90884 19.1664 9.64301 20.0972 10.1508C21.0279 10.6586 22.0717 10.9236 23.1319 10.9215H33.3359C34.4848 10.9229 35.5862 11.3799 36.3985 12.1922C37.2109 13.0046 37.6679 14.1059 37.6693 15.2548V30.4268C37.6675 31.9291 37.0699 33.3695 36.0076 34.4318C34.9453 35.4941 33.505 36.0917 32.0026 36.0935H7.15727C6.0866 36.1001 5.2746 35.0361 5.55727 34.0055L8.8066 21.5655C9.04879 20.6369 9.59204 19.8149 10.3513 19.2282C11.1106 18.6414 12.043 18.323 13.0026 18.3228H34.6693C35.9666 18.3215 35.9853 16.3268 34.6693 16.3228H13.0026C11.6007 16.3215 10.238 16.7854 9.12811 17.6417C8.01817 18.4981 7.22372 19.6985 6.86927 21.0548L3.61994 33.4948C2.99194 35.7668 4.79194 38.1041 7.14527 38.0881H31.9973C34.0298 38.0857 35.9785 37.2771 37.4157 35.8399C38.8529 34.4026 39.6615 32.454 39.6639 30.4215V15.2548C39.6618 13.5767 38.9946 11.9678 37.8085 10.7807C36.6224 9.59354 35.0141 8.92498 33.3359 8.92145Z" fill="#215294"/>
</svg>
